<?xml version="1.0" encoding="iso-8859-1"?>
<!-- Generator: Adobe Illustrator 19.0.0, SVG Export Plug-In . SVG Version: 6.00 Build 0)  -->
<svg version="1.1" id="Layer_1" xmlns="http://www.w3.org/2000/svg" xmlns:xlink="http://www.w3.org/1999/xlink" x="0px" y="0px"
	 viewBox="0 0 510.424 510.424" style="enable-background:new 0 0 510.424 510.424;" xml:space="preserve">
<path style="fill:#FFA800;" d="M502.744,374.252L502.744,374.252c0-5.12-1.707-9.387-3.413-11.947l0,0l0,0
	c-2.56-2.56-4.267-3.413-6.827-4.267c-6.827-2.56-17.067-4.267-29.013-4.267c-5.12,0-7.68,0-16.213,0.853l0,0
	c0,0.853-7.68,0.853-11.093,1.707c-15.36,3.413-25.6,10.24-30.72,14.507c-3.413,2.56-6.827,5.973-6.827,11.093
	c0,2.56,0.853,5.973,3.413,7.68c2.56,1.707,5.12,2.56,6.827,2.56c0.853,0,0.853,0,1.707,0h0.853l0,0
	c4.267-0.853,10.24-1.707,18.773-2.56c4.267-0.853,6.827-0.853,10.24-0.853l-37.547,23.893
	c-52.053,23.893-105.813,35.84-156.16,36.693c-46.08,0-95.573-8.533-135.68-29.013c-5.973-3.413-12.8-5.973-18.773-9.387
	c-16.213-7.68-30.72-16.213-44.373-25.6c-7.68-3.413-13.653-6.827-19.627-10.24c-2.56-0.853-5.973-1.707-7.68-1.707
	c-3.413,0-6.827,0.853-8.533,3.413c-2.56,1.707-3.413,5.12-3.413,8.533c0,4.267,1.707,7.68,5.12,10.24
	c62.293,52.907,131.413,103.253,223.573,103.253c1.707,0,3.413,0,5.12,0c58.88-1.707,125.44-21.333,176.64-53.76l0,0
	c4.267-2.56,23.893-15.36,40.107-26.453c-2.56,8.533-5.973,17.067-8.533,23.04c-0.853,1.707-0.853,3.413-0.853,5.12
	c0,2.56,0.853,6.827,3.413,8.533c2.56,1.707,5.12,3.413,7.68,3.413l0,0c3.413,0,6.827-2.56,9.387-4.267
	c23.893-21.333,32.427-57.173,33.28-76.8L502.744,374.252z"/>
<path style="fill:#FFE100;" d="M477.144,375.105L477.144,375.105c0-5.12-1.707-9.387-3.413-11.947l0,0l0,0
	c-2.56-2.56-4.267-3.413-6.827-4.267c-6.827-2.56,5.973-4.267-5.973-4.267c-5.12,0-7.68,0-16.213,0.853l0,0
	c0,0.853-7.68,0.853-11.093,1.707c-15.36,3.413-25.6,10.24-30.72,14.507c-3.413,2.56-5.12,5.973-5.12,11.093
	c0,2.56,0.853,5.973,3.413,7.68c2.56,1.707,3.413,2.56,5.973,2.56c0.853,0,0.853,0,1.707,0h0.853l0,0
	c4.267-0.853,10.24-1.707,18.773-2.56c4.267-0.853,6.827-0.853,10.24-0.853l-38.4,22.187c-52.053,23.893-94.72,35.84-145.067,36.693
	c-46.08,0-104.107-8.533-144.213-29.013c-5.973-3.413-12.8-5.973-18.773-9.387c-16.213-7.68-30.72-16.213-44.373-25.6
	c-7.68-3.413-13.653-6.827-19.627-10.24c-2.56-0.853-5.973-1.707-7.68-1.707c-3.413,0-6.827,0.853-8.533,3.413
	c-2.56,1.707-4.267,5.12-4.267,7.68c0,4.267,1.707,7.68,5.12,10.24c63.147,54.613,140.8,105.813,232.96,105.813
	c1.707,0,3.413,0,5.12,0c58.88-1.707,106.667-21.333,157.867-53.76l0,0c4.267-2.56,9.387-4.267,24.747-14.507
	c-2.56,8.533-5.973,5.973-8.533,11.947c-0.853,1.707,8.533-8.533,8.533-6.827c0,2.56,14.507-6.827,17.067-5.12
	c2.56,1.707-8.533,17.067-6.827,17.067l0,0c3.413,0,6.827-2.56,9.387-4.267c23.893-21.333,23.04-45.227,23.04-64.853
	L477.144,375.105z"/>
<path style="fill:#FFA800;" d="M396.077,309.399c0-0.853-1.707-0.853-1.707-1.707c-11.947-15.36-25.6-28.16-25.6-58.027v-98.133
	c0-41.813,5.12-79.36-25.6-108.373c-24.747-23.04-63.147-31.573-93.867-31.573h-12.8c-55.467,3.413-114.347,27.307-128,96.427
	c-2.56,8.533,4.267,11.947,8.533,12.8l61.44,7.68c6.827-0.853,10.24-7.68,11.093-13.653c5.12-23.893,24.747-39.253,46.933-39.253
	h4.267c12.8,0,26.453,6.827,33.28,17.92c8.533,12.8,7.68,31.573,7.68,46.933v7.68c-7.68,0.853-30.72,3.413-47.787,5.12
	c-24.747,3.413-49.493,7.68-69.973,17.92c-40.107,16.213-67.413,51.2-67.413,102.4c0,12.8,1.707,24.747,5.12,35.84
	c12.8,40.96,46.933,61.44,88.747,61.44c17.067,0,31.573-2.56,44.373-5.12c20.48-6.827,38.4-18.773,58.88-40.107
	c11.947,16.213,15.36,23.893,35.84,41.813c5.12,2.56,11.093,2.56,15.36-0.853c12.8-11.093,35.84-30.72,47.787-41.813
	C399.491,320.492,398.637,314.519,396.077,309.399z M269.784,279.532c-7.68,15.36-20.48,24.747-34.133,28.16
	c-2.56,0-5.12,0.853-8.533,0.853c-23.893,0-38.4-18.773-38.4-46.08c0-34.987,20.48-51.2,46.08-58.88
	c14.507-3.413,31.573-4.267,47.787-4.267v12.8C282.584,237.719,283.437,257.345,269.784,279.532z"/>
<path style="fill:#FFFFFF;" d="M325.251,358.039c13.653-11.093,31.573-25.6,40.96-34.133c5.12-4.267,3.413-9.387,0.853-14.507
	c0-0.853-1.707-0.853-1.707-1.707c-11.947-15.36-25.6-28.16-25.6-58.027v-98.987c0-41.813,5.12-79.36-25.6-108.373
	c-24.747-23.04-36.693-31.573-67.413-31.573h-12.8c-55.467,3.413-114.347,27.307-128,96.427c-2.56,8.533,4.267,11.947,8.533,12.8
	l61.44,7.68c6.827-0.853,10.24-7.68,11.093-13.653c5.12-23.893,24.747-39.253,46.933-39.253h4.267c12.8,0,26.453,6.827,33.28,17.92
	c8.533,12.8,7.68,31.573,7.68,46.933v7.68c-7.68,0.853-30.72,3.413-47.787,5.12c-24.747,3.413-49.493,7.68-69.973,17.92
	c-40.107,16.213-67.413,51.2-67.413,102.4c0,12.8,1.707,24.747,5.12,35.84c12.8,40.96,46.933,61.44,88.747,61.44
	c17.067,0,31.573-2.56,44.373-5.12c20.48-6.827,38.4-18.773,58.88-40.107 M267.224,278.679c-7.68,15.36-20.48,24.747-34.133,28.16
	c-2.56,0-5.12,0.853-8.533,0.853c-23.893,0-38.4-18.773-38.4-46.08c0-34.987,20.48-51.2,46.08-58.88
	c14.507-3.413,31.573-4.267,47.787-4.267v12.8C280.024,236.865,280.024,256.492,267.224,278.679z"/>
<path style="fill:#FFE100;" d="M331.224,358.039c13.653-11.093,31.573-25.6,40.96-34.133c5.12-4.267,3.413-9.387,0.853-14.507
	c0-0.853-1.707-0.853-1.707-1.707c-11.947-15.36-25.6-28.16-25.6-58.027v-98.987c0-41.813,5.12-79.36-25.6-108.373
	c-23.893-23.04-40.96-31.573-71.68-31.573h-12.8c-56.32,3.413-91.307,27.307-104.107,96.427c-2.56,8.533,4.267,11.947,8.533,12.8
	l37.547,7.68c6.827-0.853,10.24-7.68,11.093-13.653c5.12-23.893,24.747-39.253,46.933-39.253h4.267c12.8,0,30.72,6.827,38.4,17.92
	c8.533,12.8,7.68,31.573,7.68,46.933v7.68c-7.68,0.853-11.947,3.413-28.16,5.12c-24.747,3.413-49.493,7.68-69.973,17.92
	c-40.107,16.213-67.413,51.2-67.413,102.4c0,12.8,1.707,24.747,5.12,35.84c12.8,40.96,46.933,61.44,88.747,61.44
	c17.067,0,31.573-2.56,44.373-5.12c20.48-6.827,18.773-18.773,40.107-40.107 M274.051,278.679
	c-7.68,15.36-19.627,24.747-34.133,28.16c-2.56,0-5.12,0.853-8.533,0.853c-23.893,0-42.667-18.773-42.667-46.08
	c0-34.987,43.52-51.2,69.12-58.88c14.507-3.413,11.947-4.267,28.16-4.267v12.8C285.997,236.865,286.851,256.492,274.051,278.679z"/>
<path d="M191.277,379.372c-47.787,0-84.48-25.6-97.28-67.413c-3.413-11.947-5.973-24.747-5.973-38.4
	c0-51.2,26.453-92.16,72.533-110.933c21.333-10.24,47.787-14.507,72.533-17.92c9.387-0.853,21.333-2.56,30.72-3.413
	c3.413,0,6.827-0.853,9.387-0.853v-3.413c0-13.653,0-29.013-6.827-39.253c-5.973-8.533-16.213-13.653-26.453-13.653h-4.267
	c-18.773,0-34.133,13.653-38.4,33.28c-1.707,8.533-6.827,17.92-17.92,19.627c-0.853,0-1.707,0-2.56,0l-61.44-7.68h-0.853
	c-11.947-2.56-17.92-11.947-15.36-23.04c12.8-61.44,62.293-98.987,136.533-103.253h13.653c39.253,0,75.947,12.8,98.987,34.133
	c29.867,27.307,29.013,62.293,29.013,99.84c0,5.12,0,10.24,0,15.36v97.28c0,23.04,9.387,34.133,19.627,47.787
	c1.707,1.707,2.56,3.413,3.413,5.12c0.853,0.853,1.707,1.707,2.56,3.413l0,0c7.68,14.507,0,22.187-3.413,25.6
	c-11.093,10.24-33.28,29.867-47.787,41.813c-6.827,5.12-15.36,5.973-23.893,2.56c-0.853,0-1.707-0.853-2.56-1.707
	c-17.067-14.507-23.04-23.04-31.573-34.133c0,0,0,0,0-0.853c-18.773,18.773-35.84,29.013-55.467,34.987
	C222.851,377.665,207.491,379.372,191.277,379.372z M236.504,67.052h4.267c16.213,0,31.573,8.533,40.96,21.333
	c9.387,14.507,9.387,34.133,9.387,49.493v10.24c0,4.267-3.413,7.68-7.68,8.533c-3.413,0.853-9.387,0.853-17.067,1.707
	c-9.387,0.853-21.333,2.56-30.72,3.413c-23.04,3.413-47.787,7.68-67.413,17.067c-40.107,16.213-62.293,50.347-62.293,94.72
	c0,11.093,1.707,22.187,5.12,33.28c11.093,34.987,40.107,55.467,81.067,55.467c14.507,0,28.16-1.707,42.667-5.12
	c18.773-5.973,34.987-17.067,54.613-38.4c1.707-1.707,4.267-2.56,6.827-2.56s5.12,1.707,5.973,3.413
	c2.56,3.413,4.267,5.973,6.827,9.387c7.68,10.24,11.947,17.067,27.307,29.867c2.56,0.853,4.267,0.853,5.973,0
	c13.653-11.093,35.84-30.72,47.787-40.96l0.853-0.853c0,0,0-0.853-0.853-2.56c-0.853-0.853-0.853-0.853-1.707-1.707
	c-1.707-1.707-2.56-3.413-4.267-5.12c-11.093-13.653-23.04-29.013-23.04-58.027v-98.133c0-5.12,0-10.24,0-15.36
	c0.853-34.133,0.853-64-23.04-87.04c-20.48-18.773-52.907-29.013-87.893-29.013h-12.8c-38.4,2.56-105.813,17.067-119.467,89.6
	c0,1.707,0,1.707,0,1.707s0.853,0.853,2.56,0.853l58.88,7.68c1.707-0.853,2.56-3.413,3.413-5.973
	C187.011,85.825,209.197,67.052,236.504,67.052z M390.104,315.372L390.104,315.372L390.104,315.372z"/>
<path d="M227.117,317.932c-28.16,0-46.933-22.187-46.933-54.613c0-34.133,17.92-57.173,52.907-67.413c0,0,0,0,0.853,0
	c16.213-3.413,35.84-4.267,49.493-4.267c5.12,0,8.533,3.413,8.533,8.533v16.213c0,23.893,0,44.373-13.653,67.413
	c-8.533,17.067-22.187,28.16-40.107,32.427c-0.853,0-1.707,0-1.707,0c-0.853,0-0.853,0-1.707,0
	C232.237,317.079,229.677,317.932,227.117,317.932z M237.357,212.119c-27.307,8.533-40.107,23.893-40.107,51.2
	c0,17.92,7.68,37.547,29.867,37.547c0.853,0,2.56,0,3.413-0.853c1.707,0,2.56-0.853,3.413-0.853
	c11.947-3.413,22.187-11.093,28.16-23.893c11.947-19.627,11.947-35.84,11.947-59.733v-7.68
	C259.544,208.705,246.744,210.412,237.357,212.119z"/>
<path d="M237.357,507.372c-98.133,0-169.813-55.467-229.547-107.52c-5.12-4.267-8.533-10.24-7.68-17.067
	c0-5.12,2.56-10.24,6.827-14.507c3.413-3.413,9.387-5.973,14.507-5.973c3.413,0,7.68,0.853,11.947,2.56l2.56,1.707
	c5.12,2.56,9.387,5.12,16.213,7.68c0.853,0,0.853,0.853,1.707,0.853c11.093,7.68,25.6,17.067,42.667,24.747
	c6.827,2.56,12.8,5.973,18.773,9.387c35.84,17.92,82.773,28.16,131.413,28.16l0,0c51.2-0.853,104.107-13.653,151.893-35.84
	l5.973-4.267c-3.413-0.853-5.973-1.707-8.533-4.267c-4.267-3.413-6.827-9.387-6.827-14.507c0-10.24,7.68-15.36,10.24-17.067
	c6.827-5.12,17.92-12.8,34.133-16.213c1.707-0.853,5.12-0.853,7.68-0.853c0.853,0,1.707,0,2.56,0c0.853,0,1.707-0.853,2.56-0.853
	h3.413c5.973-0.853,8.533-0.853,12.8-0.853c13.653,0,24.747,1.707,32.427,4.267c2.56,0.853,5.973,2.56,9.387,6.827l0.853,0.853
	c3.413,5.973,5.12,11.093,5.12,17.92v3.413c0,19.627-8.533,58.027-35.84,82.773c-3.413,2.56-8.533,6.827-14.507,6.827
	c-5.973,0-11.093-3.413-13.653-5.973c-4.267-3.413-5.973-10.24-5.973-15.36c0-1.707,0-4.267,0.853-5.973
	c-8.533,5.973-16.213,10.24-18.773,11.947c-52.907,33.28-120.32,53.76-181.76,55.467L237.357,507.372z M20.611,380.225
	c-0.853,0-2.56,0.853-2.56,0.853c-0.853,0.853-0.853,1.707-0.853,1.707c0,1.707,0.853,2.56,1.707,3.413
	c57.173,51.2,126.293,104.107,218.453,104.107h5.12c58.027-1.707,122.027-20.48,172.373-52.053
	c4.267-2.56,23.893-15.36,40.107-26.453c3.413-1.707,6.827-1.707,10.24,0c2.56,2.56,4.267,5.973,3.413,9.387
	c-2.56,9.387-5.973,17.92-8.533,23.04c0,0.853,0,1.707,0,1.707c0,0.853,0,1.707,0.853,2.56c0.853,0.853,1.707,1.707,1.707,1.707
	s1.707-1.707,3.413-2.56c23.04-20.48,29.867-54.613,29.867-69.973v-3.413l0,0l0,0c0-3.413-0.853-5.12-1.707-7.68
	c-0.853-0.853-0.853-0.853-3.413-1.707c-5.12-1.707-15.36-3.413-26.453-3.413c-3.413,0-6.827,0-11.947,0.853h-2.56
	c-1.707,0.853-3.413,0.853-5.12,0.853c-1.707,0-4.267,0.853-5.973,0.853c-13.653,3.413-23.893,10.24-27.307,12.8
	c-3.413,2.56-3.413,3.413-3.413,4.267v0.853c0,0,0.853,0.853,1.707,0.853h0.853c2.56-0.853,6.827-0.853,12.8-1.707l7.68-0.853
	c3.413,0,5.973-0.853,9.387-0.853c4.267,0,7.68,2.56,8.533,5.973c0.853,3.413,0,7.68-3.413,10.24l-37.547,23.893
	c0,0-0.853,0-0.853,0.853c-50.347,23.04-105.813,35.84-159.573,37.547l0,0c-51.2,0-100.693-11.093-139.947-29.867
	c-5.973-3.413-11.947-5.973-18.773-8.533c-17.92-8.533-33.28-17.92-45.227-25.6c-6.827-2.56-11.947-5.973-17.067-8.533l-1.707-4.267
	C24.024,381.079,22.317,380.225,20.611,380.225z"/>
<g>
</g>
<g>
</g>
<g>
</g>
<g>
</g>
<g>
</g>
<g>
</g>
<g>
</g>
<g>
</g>
<g>
</g>
<g>
</g>
<g>
</g>
<g>
</g>
<g>
</g>
<g>
</g>
<g>
</g>
</svg>
