<?xml version="1.0" encoding="iso-8859-1"?>
<!-- Generator: Adobe Illustrator 19.0.0, SVG Export Plug-In . SVG Version: 6.00 Build 0)  -->
<svg version="1.1" id="Layer_1" xmlns="http://www.w3.org/2000/svg" xmlns:xlink="http://www.w3.org/1999/xlink" x="0px" y="0px"
	 viewBox="0 0 512 512" style="enable-background:new 0 0 512 512;" xml:space="preserve">
<g transform="translate(1 1)">
	<path style="fill:#FFFFFF;" d="M152.6,212.352H67.267v-68.267H152.6c18.773,0,34.133,15.36,34.133,34.133
		S171.373,212.352,152.6,212.352 M144.067,348.885h-76.8v-85.333h76.8c23.893,0,42.667,18.773,42.667,42.667
		S167.96,348.885,144.067,348.885 M195.267,238.805c0,0,53.76-14.507,42.667-76.8c-11.093-62.293-86.187-60.587-86.187-60.587H7.533
		v290.133h148.48c0,0,90.453,5.973,98.987-66.56S195.267,238.805,195.267,238.805"/>
	<g>
		<path style="fill:#FFE100;" d="M152.6,212.352H67.267v-68.267H152.6c18.773,0,34.133,15.36,34.133,34.133
			S171.373,212.352,152.6,212.352 M144.067,348.885h-76.8v-85.333h76.8c23.893,0,42.667,18.773,42.667,42.667
			S167.96,348.885,144.067,348.885 M195.267,238.805c0,0,53.76-14.507,42.667-76.8c-11.093-62.293-86.187-60.587-86.187-60.587
			H33.133v290.133h122.88c0,0,90.453,5.973,98.987-66.56S195.267,238.805,195.267,238.805"/>
		<path style="fill:#FFE100;" d="M348.867,263.552c0-21.333,17.92-42.667,46.933-42.667c29.867,0,46.933,21.333,46.933,42.667v8.533
			h-93.867V263.552z M400.067,365.952c-34.133,0-51.2-25.6-51.2-59.733h128c0-75.947-25.6-119.467-85.333-119.467
			c-62.293,0-110.933,53.76-110.933,102.4c0,69.973,48.64,119.467,110.933,119.467c74.24,0,75.947-62.293,76.8-68.267h-25.6
			C441.88,343.765,434.2,365.952,400.067,365.952L400.067,365.952z"/>
	</g>
	<g>
		<path style="fill:#FFA800;" d="M476.867,306.219h25.6c0-75.947-51.2-119.467-110.933-119.467
			C451.267,186.752,476.867,230.272,476.867,306.219"/>
		<path style="fill:#FFA800;" d="M391.533,408.618c74.24,0,101.547-62.293,102.4-68.267h-25.6
			C467.48,346.325,465.773,408.618,391.533,408.618"/>
		<polygon style="fill:#FFA800;" points="340.333,152.618 459.8,152.618 459.8,118.485 340.333,118.485 		"/>
	</g>
	<polygon style="fill:#FFE100;" points="340.333,152.618 434.2,152.618 434.2,118.485 340.333,118.485 	"/>
	<path d="M459.8,161.152H340.333c-5.12,0-8.533-3.413-8.533-8.533v-34.133c0-5.12,3.413-8.533,8.533-8.533H459.8
		c5.12,0,8.533,3.413,8.533,8.533v34.133C468.333,157.738,464.92,161.152,459.8,161.152z M348.867,144.085h102.4v-17.067h-102.4
		V144.085z"/>
	<path d="M162.84,400.085c-2.56,0-5.12,0-7.68,0H7.533c-5.12,0-8.533-3.413-8.533-8.533V101.418c0-5.12,3.413-8.533,8.533-8.533
		h144.213c29.013-0.853,85.333,12.8,94.72,68.267c7.68,42.667-12.8,65.707-29.867,76.8c22.187,11.093,52.907,35.84,46.933,88.747
		C256.707,385.578,198.68,400.085,162.84,400.085z M16.067,383.019h139.947c4.267,0,82.773,4.267,90.453-58.88
		s-50.347-76.8-52.907-76.8c-4.267-0.853-6.827-4.267-6.827-8.533c0-4.267,2.56-7.68,5.973-8.533
		c1.707-0.853,46.08-13.653,36.693-66.56c-9.387-53.76-76.8-53.76-77.653-53.76H16.067V383.019z"/>
	<path id="SVGCleanerId_0" d="M391.533,417.152c-68.267,0-119.467-54.613-119.467-128c0-52.053,51.2-110.933,119.467-110.933
		c69.973,0,119.467,52.907,119.467,128c0,5.12-3.413,8.533-8.533,8.533H357.4c2.56,27.307,17.92,42.667,42.667,42.667
		c23.893,0,31.573-12.8,34.987-19.627c0.853-3.413,4.267-5.973,7.68-5.973h51.2c2.56,0,5.12,0.853,6.827,3.413
		c1.707,1.707,2.56,4.267,1.707,6.827C499.907,354.005,469.187,417.152,391.533,417.152z M391.533,195.285
		c-58.027,0-102.4,50.347-102.4,93.867c0,64,42.667,110.933,102.4,110.933c52.053,0,78.507-33.28,88.747-51.2h-32.427
		c-5.12,10.24-18.773,25.6-48.64,25.6c-36.693,0-59.733-26.453-59.733-68.267c0-5.12,3.413-8.533,8.533-8.533H493.08
		C490.52,246.485,458.093,195.285,391.533,195.285z"/>
	<path d="M152.6,220.885H67.267c-5.12,0-8.533-3.413-8.533-8.533v-68.267c0-5.12,3.413-8.533,8.533-8.533H152.6
		c23.893,0,42.667,18.773,42.667,42.667S176.493,220.885,152.6,220.885z M75.8,203.818h76.8c14.507,0,25.6-11.093,25.6-25.6
		c0-14.507-11.093-25.6-25.6-25.6H75.8V203.818z"/>
	<path d="M144.067,357.419h-76.8c-5.12,0-8.533-3.413-8.533-8.533v-85.333c0-5.12,3.413-8.533,8.533-8.533h76.8
		c28.16,0,51.2,23.04,51.2,51.2S172.227,357.419,144.067,357.419z M75.8,340.352h68.267c18.773,0,34.133-15.36,34.133-34.133
		s-15.36-34.133-34.133-34.133H75.8V340.352z"/>
	<path d="M442.733,280.618h-93.867c-5.12,0-8.533-3.413-8.533-8.533v-8.533c0-24.747,20.48-51.2,55.467-51.2
		c35.84,0,55.467,26.453,55.467,51.2v8.533C451.267,277.205,447.853,280.618,442.733,280.618z M357.4,263.552h76.8
		c0-16.213-13.653-34.133-38.4-34.133S357.4,247.339,357.4,263.552z"/>
	<g>
		<path id="SVGCleanerId_0_1_" d="M391.533,417.152c-68.267,0-119.467-54.613-119.467-128c0-52.053,51.2-110.933,119.467-110.933
			c69.973,0,119.467,52.907,119.467,128c0,5.12-3.413,8.533-8.533,8.533H357.4c2.56,27.307,17.92,42.667,42.667,42.667
			c23.893,0,31.573-12.8,34.987-19.627c0.853-3.413,4.267-5.973,7.68-5.973h51.2c2.56,0,5.12,0.853,6.827,3.413
			c1.707,1.707,2.56,4.267,1.707,6.827C499.907,354.005,469.187,417.152,391.533,417.152z M391.533,195.285
			c-58.027,0-102.4,50.347-102.4,93.867c0,64,42.667,110.933,102.4,110.933c52.053,0,78.507-33.28,88.747-51.2h-32.427
			c-5.12,10.24-18.773,25.6-48.64,25.6c-36.693,0-59.733-26.453-59.733-68.267c0-5.12,3.413-8.533,8.533-8.533H493.08
			C490.52,246.485,458.093,195.285,391.533,195.285z"/>
	</g>
</g>
<g>
</g>
<g>
</g>
<g>
</g>
<g>
</g>
<g>
</g>
<g>
</g>
<g>
</g>
<g>
</g>
<g>
</g>
<g>
</g>
<g>
</g>
<g>
</g>
<g>
</g>
<g>
</g>
<g>
</g>
</svg>
