<?xml version="1.0" encoding="iso-8859-1"?>
<!-- Generator: Adobe Illustrator 19.0.0, SVG Export Plug-In . SVG Version: 6.00 Build 0)  -->
<svg version="1.1" id="Layer_1" xmlns="http://www.w3.org/2000/svg" xmlns:xlink="http://www.w3.org/1999/xlink" x="0px" y="0px"
	 viewBox="0 0 504.446 504.446" style="enable-background:new 0 0 504.446 504.446;" xml:space="preserve">
<g transform="translate(1 1)">
	<path style="fill:#FFE100;" d="M124.902,66.567H77.059l-19.305,92.328h50.361c55.397,0,71.344-27.698,71.344-52.039
		C179.459,89.229,169.387,66.567,124.902,66.567"/>
	<polygon style="fill:#FFFFFF;" points="51.879,66.567 32.574,158.895 58.593,158.895 77.898,66.567 	"/>
	<path style="fill:#FFE100;" d="M99.721,200.862H51.879L32.574,293.19h50.361c55.397,0,71.344-27.698,71.344-52.039
		C154.279,223.525,144.207,200.862,99.721,200.862"/>
	<polygon style="fill:#FFFFFF;" points="26.698,200.862 7.393,293.19 33.413,293.19 52.718,200.862 	"/>
	<path style="fill:#FFA800;" d="M289.413,66.567h-68.826l-19.305,92.328h71.344c55.397,0,71.344-27.698,71.344-52.039
		C343.97,89.229,333.898,66.567,289.413,66.567"/>
	<path style="fill:#FFE100;" d="M262.554,66.567h-45.325l-19.305,92.328H255c55.397,0,62.951-27.698,62.951-52.039
		C317.951,89.229,307.039,66.567,262.554,66.567"/>
	<path style="fill:#FFA800;" d="M266.751,200.862h-68.826L178.62,293.19h71.344c55.397,0,71.344-27.698,71.344-52.039
		C321.308,223.525,311.236,200.862,266.751,200.862"/>
	<path style="fill:#FFE100;" d="M240.731,200.862h-45.325l-20.144,92.328h57.075c55.397,0,62.951-27.698,62.951-52.039
		C295.289,223.525,285.216,200.862,240.731,200.862"/>
	<path style="fill:#FFA800;" d="M237.374,343.551h-68.826l-18.466,92.328h71.344c55.397,0,71.344-27.698,71.344-52.039
		C292.77,366.213,281.859,343.551,237.374,343.551"/>
	<path style="fill:#FFE100;" d="M211.354,343.551h-45.325l-19.305,92.328H203.8c55.397,0,62.951-27.698,62.951-52.039
		C266.751,366.213,255.839,343.551,211.354,343.551"/>
	<path style="fill:#FFA800;" d="M438.816,150.502H369.99l-18.466,83.934h71.344c55.397,0,71.344-19.305,71.344-43.646
		C494.213,173.164,483.302,150.502,438.816,150.502"/>
	<path style="fill:#FFE100;" d="M412.797,150.502h-45.325l-19.305,83.934h57.075c55.397,0,62.951-19.305,62.951-43.646
		C468.193,173.164,457.282,150.502,412.797,150.502"/>
	<path style="fill:#FFA800;" d="M417.833,293.19h-68.826l-19.305,83.934h71.344c55.397,0,71.344-27.698,71.344-52.039
		C472.39,307.459,462.318,293.19,417.833,293.19"/>
	<path style="fill:#FFE100;" d="M391.813,293.19h-45.325l-20.144,83.934h57.075c55.397,0,62.951-27.698,62.951-52.039
		C446.37,307.459,436.298,293.19,391.813,293.19"/>
	<path d="M103.079,167.289H31.734c-2.518,0-5.036-0.839-6.715-3.357c-0.839-1.679-1.679-4.197-0.839-6.715l19.305-92.328
		c0.839-4.197,4.197-6.715,8.393-6.715h68.826c21.823,0,38.61,5.036,50.361,15.948c8.393,8.393,13.43,20.144,13.43,32.734
		C183.656,121.125,177.78,167.289,103.079,167.289z M42.646,150.502h61.272c41.128,0,62.951-15.108,62.951-43.646
		c0-5.875-1.679-14.269-8.393-20.984c-7.554-6.715-20.984-10.911-38.61-10.911H58.593L42.646,150.502z"/>
	<path d="M221.426,444.272h-71.344c-2.518,0-5.036-0.839-6.715-3.357c-1.679-1.679-2.518-4.197-1.679-6.715l19.305-92.328
		c0.839-4.197,4.197-6.715,8.393-6.715h68.826c58.754,0,63.79,36.931,63.79,48.682C301.164,398.108,295.289,444.272,221.426,444.272
		z M160.154,427.485h61.272c41.128,0,62.951-15.108,62.951-43.646c0-11.751-5.875-31.895-47.003-31.895h-62.111L160.154,427.485z"/>
	<path d="M78.738,301.584H7.393c-2.518,0-5.036-0.839-6.715-3.357C-1,296.548-1,294.029-1,291.511l19.305-92.328
		c0.839-4.197,4.197-6.715,8.393-6.715h68.826c58.754,0,63.79,36.931,63.79,48.682C158.475,255.42,152.6,301.584,78.738,301.584z
		 M17.466,284.797h61.272c41.128,0,62.951-15.108,62.951-43.646c0-11.751-5.875-31.895-47.003-31.895H33.413L17.466,284.797z"/>
	<path d="M397.689,385.518h-71.344c-2.518,0-5.036-0.839-6.715-3.357c-1.679-1.679-1.679-4.197-1.679-6.715l19.305-83.934
		c0.839-4.197,4.197-6.715,8.393-6.715h68.826c55.397,0,63.79,27.698,63.79,44.485C477.426,350.266,467.354,385.518,397.689,385.518
		z M337.256,368.731h60.433c41.967,0,62.951-13.429,62.951-39.449c0-18.466-15.948-27.698-47.003-27.698h-62.111L337.256,368.731z"
		/>
	<path d="M422.869,242.829h-71.344c-2.518,0-5.036-0.839-6.715-3.357c-1.679-1.679-1.679-4.197-1.679-6.715l19.305-83.934
		c0.839-4.197,4.197-6.715,8.393-6.715h68.826c55.397,0,63.79,27.698,63.79,44.485C502.607,207.577,492.534,242.829,422.869,242.829
		z M362.436,226.043h60.433c41.967,0,62.951-13.43,62.951-39.449c0-18.466-15.948-27.698-47.003-27.698h-62.111L362.436,226.043z"/>
	<path d="M247.446,301.584h-71.344c-2.518,0-5.036-0.839-6.715-3.357c-1.679-2.518-2.518-4.197-1.679-6.715l19.305-92.328
		c0.839-4.197,4.197-6.715,8.393-6.715h68.826c58.754,0,63.79,36.931,63.79,48.682C328.023,255.42,322.148,301.584,247.446,301.584z
		 M187.013,284.797h61.272c41.128,0,62.951-15.108,62.951-43.646c0-11.751-5.875-31.895-47.003-31.895h-61.272L187.013,284.797z"/>
	<path d="M272.626,167.289h-71.344c-2.518,0-5.036-0.839-6.715-3.357c-1.679-1.679-2.518-4.197-1.679-6.715l19.305-92.328
		c0.839-4.197,4.197-6.715,8.393-6.715h68.826c58.754,0,63.79,36.931,63.79,48.682C352.364,121.125,346.489,167.289,272.626,167.289
		z M211.354,150.502h61.272c41.128,0,62.951-15.108,62.951-43.646c0-11.751-5.875-31.895-47.003-31.895h-61.272L211.354,150.502z"/>
	<path style="fill:#FFE100;" d="M134.134,131.197c26.859,0,26.859-41.967,0-41.967C106.436,89.229,106.436,131.197,134.134,131.197"
		/>
</g>
<g>
</g>
<g>
</g>
<g>
</g>
<g>
</g>
<g>
</g>
<g>
</g>
<g>
</g>
<g>
</g>
<g>
</g>
<g>
</g>
<g>
</g>
<g>
</g>
<g>
</g>
<g>
</g>
<g>
</g>
</svg>
