<?xml version="1.0" encoding="iso-8859-1"?>
<!-- Generator: Adobe Illustrator 19.0.0, SVG Export Plug-In . SVG Version: 6.00 Build 0)  -->
<svg version="1.1" id="Layer_1" xmlns="http://www.w3.org/2000/svg" xmlns:xlink="http://www.w3.org/1999/xlink" x="0px" y="0px"
	 viewBox="0 0 512 512" style="enable-background:new 0 0 512 512;" xml:space="preserve">
<g transform="translate(1 1)">
	<polygon style="fill:#FFA800;" points="408.6,92.867 408.6,7.533 408.6,7.533 314.733,7.533 309.613,16.92 266.947,84.333 
		253.293,101.4 101.4,101.4 101.4,229.4 186.733,229.4 195.267,238.787 101.4,412.013 101.4,502.467 101.4,502.467 195.267,502.467 
		200.387,493.08 246.467,412.013 255,400.067 408.6,400.067 408.6,280.6 323.267,280.6 314.733,272.067 	"/>
	<polygon style="fill:#FFFFFF;" points="383,92.867 383,7.533 383,7.533 314.733,7.533 309.613,16.92 263.533,84.333 249.88,101.4 
		101.4,101.4 101.4,229.4 186.733,229.4 195.267,238.787 101.4,412.013 101.4,502.467 101.4,502.467 169.667,502.467 
		174.787,493.08 220.867,412.013 229.4,400.067 383,400.067 383,280.6 297.667,280.6 289.133,272.067 	"/>
	<polygon style="fill:#FFE100;" points="383,92.867 383,7.533 383,7.533 331.8,7.533 326.68,16.92 289.133,84.333 275.48,101.4 
		127,101.4 127,229.4 212.333,229.4 220.867,238.787 127,412.013 127,502.467 127,502.467 169.667,502.467 174.787,493.08 
		220.867,412.013 229.4,400.067 383,400.067 383,280.6 297.667,280.6 289.133,272.067 	"/>
	<path style="fill:#020202;" d="M195.267,511H101.4c-5.12,0-8.533-3.413-8.533-8.533v-90.453c0-1.707,0-2.56,0.853-4.267
		l91.307-168.107l-1.707-1.707H101.4c-5.12,0-8.533-3.413-8.533-8.533v-128c0-5.12,3.413-8.533,8.533-8.533h147.627l10.24-13.653
		l47.787-75.947C308.76,0.707,311.32-1,314.733-1H408.6c2.56,0,4.267,0.853,5.973,2.56s2.56,3.413,2.56,5.973v85.333
		c0,1.707,0,2.56-0.853,4.267L324.973,270.36l1.707,1.707h81.92c5.12,0,8.533,3.413,8.533,8.533v119.467
		c0,5.12-3.413,8.533-8.533,8.533H259.267l-5.973,8.533l-51.2,89.6C201.24,509.293,198.68,511,195.267,511z M109.933,493.933h80.213
		l2.56-5.12l46.08-81.067l9.387-12.8c1.707-2.56,4.267-3.413,6.827-3.413h145.067v-102.4h-76.8c-2.56,0-4.267-0.853-5.973-2.56
		l-8.533-8.533c-2.56-2.56-3.413-6.827-1.707-10.24l93.013-176.64V16.067h-80.213l-2.56,5.12l-42.667,68.267
		c0,0,0,0.853-0.853,0.853l-13.653,17.067c-1.707,1.707-4.267,3.413-6.827,3.413h-143.36V221.72h76.8c2.56,0,4.267,0.853,5.973,2.56
		l8.533,9.387c2.56,2.56,3.413,6.827,1.707,10.24l-93.013,170.667V493.933z"/>
</g>
<g>
</g>
<g>
</g>
<g>
</g>
<g>
</g>
<g>
</g>
<g>
</g>
<g>
</g>
<g>
</g>
<g>
</g>
<g>
</g>
<g>
</g>
<g>
</g>
<g>
</g>
<g>
</g>
<g>
</g>
</svg>
