<?xml version="1.0" encoding="iso-8859-1"?>
<!-- Generator: Adobe Illustrator 19.0.0, SVG Export Plug-In . SVG Version: 6.00 Build 0)  -->
<svg version="1.1" id="Layer_1" xmlns="http://www.w3.org/2000/svg" xmlns:xlink="http://www.w3.org/1999/xlink" x="0px" y="0px"
	 viewBox="0 0 512 512" style="enable-background:new 0 0 512 512;" xml:space="preserve">
<g transform="translate(1)">
	<path style="fill:#FDCC00;" d="M476.867,247.467C476.867,124.587,377.88,25.6,255,25.6S33.133,124.587,33.133,247.467
		S132.12,469.333,255,469.333S476.867,370.347,476.867,247.467"/>
	<path style="fill:#FFE100;" d="M371.053,429.227c-6.827-53.76-20.48-103.253-36.693-148.48c13.653-1.707,26.453-2.56,40.96-2.56
		c29.867,0,58.88,4.267,86.187,13.653C450.413,349.013,417.133,398.507,371.053,429.227 M255,464.213
		c-47.787,0-91.307-16.213-126.293-42.667c34.987-62.293,93.013-109.227,162.133-130.56c19.627,48.64,36.693,102.4,44.373,157.867
		C310.467,459.093,283.16,464.213,255,464.213 M45.933,256c0-1.707,0-3.413,0-5.12l0,0c89.6,0,159.573-11.947,213.333-29.013
		c5.973,11.093,11.093,23.04,16.213,34.133c-74.24,23.893-136.533,74.24-175.787,139.947C66.413,358.4,45.933,309.76,45.933,256
		 M164.547,67.413c0,0,36.693,46.933,75.947,118.613c-95.573,27.307-190.293,25.6-190.293,25.6l0,0
		C64.707,148.48,107.373,95.573,164.547,67.413 M255,46.933c52.907,0,101.547,19.627,138.24,52.907l0,0
		c-28.16,32.427-67.413,55.467-108.373,71.68C244.76,97.28,206.36,52.907,206.36,52.907C221.72,49.493,237.933,46.933,255,46.933
		 M464.067,253.44c-28.16-8.533-58.027-12.8-88.747-12.8c-18.773,0-36.693,1.707-54.613,4.267
		c-5.973-13.653-11.947-27.307-17.92-39.253c84.48-35.84,115.2-81.067,115.2-81.067l0,0
		C446.147,159.573,463.213,204.8,464.067,253.44 M255,8.533C118.467,8.533,7.533,119.467,7.533,256S118.467,503.467,255,503.467
		S502.467,392.533,502.467,256S391.533,8.533,255,8.533"/>
	<path style="fill:#FFFFFF;" d="M24.6,247.467C24.6,138.24,83.48,46.08,176.493,12.8C78.36,46.08,7.533,138.24,7.533,247.467
		s70.827,201.387,168.96,234.667C83.48,448.853,24.6,356.693,24.6,247.467"/>
	<path style="fill:#FFA800;" d="M255,0h-0.853C389.827,0.853,485.4,110.933,485.4,247.467S390.68,494.08,254.147,494.933H255
		c136.533,0,247.467-110.933,247.467-247.467S391.533,0,255,0"/>
	<path d="M255,512C114.2,512-1,396.8-1,256c0-54.613,17.067-105.813,48.64-150.187l0.853-0.853l46.933-48.64l0.853-0.853
		C141.507,18.773,196.973,0,255,0c140.8,0,256,115.2,256,256S395.8,512,255,512z M61.293,116.053
		c-29.867,40.96-45.227,89.6-45.227,139.947c0,131.413,107.52,238.933,238.933,238.933S493.933,387.413,493.933,256
		S386.413,17.067,255,17.067c-54.613,0-105.813,17.92-147.627,51.2L61.293,116.053z M255,472.747
		c-47.787,0-93.867-15.36-131.413-44.373c-3.413-2.56-4.267-7.68-2.56-11.093c36.693-64.853,96.427-112.64,167.253-134.827
		c4.267-1.707,8.533,0.853,10.24,5.12c22.187,55.467,37.547,109.227,44.373,159.573c0.853,4.267-1.707,7.68-5.12,9.387
		C312.173,467.627,284.013,472.747,255,472.747z M139.8,419.84c34.133,23.893,73.387,36.693,115.2,36.693
		c23.893,0,47.787-4.267,69.973-12.8c-6.827-45.227-20.48-92.16-39.253-141.653C224.28,322.56,173.08,364.373,139.8,419.84z
		 M371.053,437.76c-0.853,0-2.56,0-3.413-0.853c-2.56-0.853-4.267-3.413-5.12-6.827c-6.827-48.64-18.773-97.28-36.693-146.773
		c-0.853-2.56-0.853-5.12,0.853-7.68c1.707-2.56,3.413-3.413,5.973-4.267c43.52-5.973,88.747-2.56,130.56,11.093
		c4.267,1.707,6.827,5.12,5.973,9.387c-10.24,58.027-44.373,110.08-93.013,143.36C374.467,437.76,372.76,437.76,371.053,437.76z
		 M345.453,288.427c14.507,41.813,25.6,84.48,31.573,126.293c37.547-29.013,64-70.827,73.387-116.907
		C417.133,287.573,381.293,285.013,345.453,288.427z M99.693,404.48c-2.56,0-5.12-0.853-5.973-2.56
		C57.88,361.813,37.4,309.76,37.4,256c0-1.707,0-3.413,0-5.973c0-4.267,4.267-8.533,8.533-8.533c1.707,0,3.413,0,5.12,0
		c76.8,0,145.92-9.387,205.653-28.16c4.267-0.853,8.533,0.853,10.24,4.267c5.973,11.947,11.947,23.893,16.213,34.987
		c0.853,2.56,0.853,5.12,0,6.827c-0.853,2.56-2.56,4.267-5.12,4.267c-71.68,23.04-132.267,71.68-170.667,135.68
		C105.667,402.773,103.96,403.627,99.693,404.48C100.547,404.48,100.547,404.48,99.693,404.48z M55.32,259.413
		c0.853,44.373,16.213,87.893,44.373,122.027c39.253-60.587,97.28-105.813,164.693-130.56c-2.56-5.973-5.973-12.8-9.387-19.627
		C196.12,250.027,128.707,258.56,55.32,259.413z M464.067,261.973c-0.853,0-1.707,0-2.56,0c-45.227-12.8-93.867-15.36-139.947-7.68
		c-4.267,0.853-7.68-1.707-9.387-5.12c-5.12-12.8-11.093-26.453-17.92-39.253c-0.853-1.707-0.853-4.267,0-6.827
		c0.853-2.56,2.56-4.267,4.267-5.12c80.213-34.133,110.933-76.8,111.787-77.653c1.707-1.707,3.413-3.413,5.973-3.413
		c2.56-0.853,5.973,0.853,7.68,3.413c30.72,38.4,47.787,84.48,48.64,133.973c0,2.56-0.853,5.12-3.413,6.827
		C467.48,261.12,465.773,261.973,464.067,261.973z M374.467,232.107c27.307,0,53.76,3.413,80.213,10.24
		c-2.56-37.547-15.36-73.387-37.547-103.253c-12.8,14.507-44.373,45.227-103.253,71.68c4.267,8.533,7.68,17.067,11.947,25.6
		C341.187,232.96,358.253,232.107,374.467,232.107z M53.613,221.013c-1.707,0-2.56,0-3.413,0c-2.56,0-5.12-0.853-6.827-3.413
		c-0.853-1.707-1.707-4.267-0.853-6.827c13.653-64.853,58.027-122.027,118.613-151.04c3.413-1.707,7.68-0.853,10.24,2.56
		c0,0.853,37.547,47.787,76.8,120.32c0.853,2.56,1.707,5.12,0,7.68c-1.707,2.56-3.413,4.267-5.12,5.12
		C156.013,220.16,71.533,221.013,53.613,221.013z M161.987,78.507c-49.493,25.6-86.187,71.68-100.693,125.44
		c25.6-0.853,95.573-3.413,166.4-23.04C198.68,129.707,172.227,92.16,161.987,78.507z M284.867,180.053
		c-3.413,0-5.973-1.707-7.68-4.267c-39.253-72.533-76.8-116.907-77.653-117.76c-1.707-2.56-2.56-5.12-1.707-8.533
		c0.853-2.56,3.413-5.12,5.973-5.973c17.067-2.56,34.133-5.12,51.2-5.12c52.907,0,104.107,19.627,144.213,54.613
		c1.707,1.707,2.56,3.413,2.56,5.973c0,2.56-0.853,4.267-2.56,5.973c-25.6,29.867-64,54.613-111.787,74.24
		C286.573,180.053,285.72,180.053,284.867,180.053z M221.72,58.88c12.8,17.067,39.253,52.053,66.56,102.4
		c38.4-16.213,69.973-36.693,93.013-60.587C345.453,71.68,301.08,55.467,255,55.467C243.907,55.467,232.813,56.32,221.72,58.88z"/>
	<path d="M84.333,85.333c0-5.12-3.413-8.533-8.533-8.533s-8.533,3.413-8.533,8.533s3.413,8.533,8.533,8.533
		C80.92,93.867,84.333,90.453,84.333,85.333"/>
</g>
<g>
</g>
<g>
</g>
<g>
</g>
<g>
</g>
<g>
</g>
<g>
</g>
<g>
</g>
<g>
</g>
<g>
</g>
<g>
</g>
<g>
</g>
<g>
</g>
<g>
</g>
<g>
</g>
<g>
</g>
</svg>
