<?xml version="1.0" encoding="iso-8859-1"?>
<!-- Generator: Adobe Illustrator 19.0.0, SVG Export Plug-In . SVG Version: 6.00 Build 0)  -->
<svg version="1.1" id="Layer_1" xmlns="http://www.w3.org/2000/svg" xmlns:xlink="http://www.w3.org/1999/xlink" x="0px" y="0px"
	 viewBox="0 0 508.587 508.587" style="enable-background:new 0 0 508.587 508.587;" xml:space="preserve">
<g transform="translate(2 2)">
	<polyline style="fill:#FFA800;" points="456.24,253.147 318.853,340.187 334.213,352.987 474.16,265.093 	"/>
	<polygon style="fill:#FFE100;" points="115.76,201.947 30.427,133.68 175.493,56.88 260.827,116.613 	"/>
	<polyline style="fill:#FFFFFF;" points="32.987,133.68 175.493,58.587 160.987,48.347 15.92,125.147 	"/>
	<g>
		<polygon style="fill:#FFE100;" points="317.147,347.013 234.373,275.333 373.467,186.587 457.093,259.12 		"/>
		<polygon style="fill:#FFE100;" points="374.32,210.48 243.76,128.56 346.16,60.293 474.16,137.093 		"/>
	</g>
	<polygon style="fill:#FFA800;" points="363.227,53.467 491.227,130.267 474.16,142.213 346.16,65.413 	"/>
	<g>
		<polygon style="fill:#FDCC00;" points="260.827,113.2 388.827,201.947 254,288.133 115.76,201.947 		"/>
		<polygon style="fill:#FDCC00;" points="107.227,363.227 107.227,324.827 172.08,362.373 252.293,287.28 252.293,457.947 		"/>
		<polygon style="fill:#FDCC00;" points="397.36,364.08 252.293,457.947 252.293,287.28 335.067,358.96 397.36,319.707 		"/>
	</g>
	<polygon style="fill:#FFE100;" points="29.573,278.747 114.053,201.947 252.293,287.28 172.08,362.373 	"/>
	<path d="M252.293,466.48c-1.707,0-3.413-0.853-4.267-1.707l-145.067-94.72c-2.56-1.707-4.267-4.267-4.267-6.827v-39.253
		c0-3.413,1.707-5.973,4.267-7.68c2.56-1.707,5.973-1.707,8.533,0l58.88,34.133L246.32,279.6c2.56-2.56,5.973-2.56,9.387-1.707
		c3.413,1.707,5.12,4.267,5.12,7.68V456.24c0,3.413-1.707,5.973-4.267,7.68C254.853,466.48,254,466.48,252.293,466.48z
		 M115.76,358.96l128,83.627v-135.68l-66.56,61.44c-2.56,2.56-6.827,3.413-10.24,0.853l-51.2-29.867V358.96z"/>
	<path d="M172.933,372.613l-157.867-92.16l97.28-89.6l153.6,94.72L172.933,372.613z M44.08,277.04l127.147,74.24l67.413-63.147
		l-123.733-75.947L44.08,277.04z"/>
	<path d="M113.2,212.187L-2,123.44l161.28-85.333l117.76,78.507L113.2,212.187z M28.72,126.853l85.333,64.853l130.56-75.093
		l-87.04-58.027L28.72,126.853z"/>
	<path d="M252.293,466.48c-1.707,0-2.56,0-4.267-0.853c-2.56-1.707-4.267-4.267-4.267-7.68V287.28c0-3.413,1.707-5.973,5.12-7.68
		s6.827-0.853,9.387,1.707l77.653,67.413l57.173-35.84c2.56-1.707,5.973-1.707,8.533,0c2.56,1.707,4.267,4.267,4.267,7.68v43.52
		c0,2.56-1.707,5.973-4.267,6.827l-51.2,33.28c-4.267,2.56-9.387,1.707-11.947-2.56c-1.707-3.413-0.853-9.387,3.413-11.947
		l46.933-30.72v-24.747l-49.493,31.573c-3.413,1.707-7.68,1.707-10.24-0.853L260.827,305.2v136.533l29.867-18.773
		c4.267-2.56,9.387-1.707,11.947,2.56s1.707,9.387-2.56,11.947l-42.667,27.307C255.707,465.627,254,466.48,252.293,466.48z"/>
	<path d="M329.093,415.28c0-5.12-3.413-8.533-8.533-8.533c-5.12,0-8.533,3.413-8.533,8.533c0,5.12,3.413,8.533,8.533,8.533
		C325.68,423.813,329.093,420.4,329.093,415.28"/>
	<path d="M334.213,369.2l-95.573-83.627l153.6-98.987l97.28,83.627L334.213,369.2z M266.8,288.133l69.12,59.733l124.587-78.507
		l-69.973-60.587L266.8,288.133z"/>
	<path d="M391.387,208.773l-145.92-92.16l117.76-78.507l143.36,86.187L391.387,208.773z M276.187,116.613l114.347,71.68L475.867,126
		l-112.64-67.413L276.187,116.613z"/>
</g>
<g>
</g>
<g>
</g>
<g>
</g>
<g>
</g>
<g>
</g>
<g>
</g>
<g>
</g>
<g>
</g>
<g>
</g>
<g>
</g>
<g>
</g>
<g>
</g>
<g>
</g>
<g>
</g>
<g>
</g>
</svg>
