<?xml version="1.0" encoding="iso-8859-1"?>
<!-- Generator: Adobe Illustrator 19.0.0, SVG Export Plug-In . SVG Version: 6.00 Build 0)  -->
<svg version="1.1" id="Layer_1" xmlns="http://www.w3.org/2000/svg" xmlns:xlink="http://www.w3.org/1999/xlink" x="0px" y="0px"
	 viewBox="0 0 503.607 503.607" style="enable-background:new 0 0 503.607 503.607;" xml:space="preserve">
<g transform="translate(1 1)">
	<path style="fill:#63D3FD;" d="M250.803,375.026c-24.341,0-47.003-6.715-67.148-20.144c-20.144-13.43-35.252-30.216-45.325-51.2
		L37.61,129.098c-20.984,37.77-30.216,78.898-30.216,121.705c0,61.272,20.144,114.151,59.593,159.475s88.971,72.184,147.725,81.416
		l70.505-122.544C278.502,371.669,265.911,375.026,250.803,375.026"/>
	<path style="fill:#FFA800;" d="M475.747,159.315h-141.01c24.341,24.341,41.128,56.236,41.128,91.489
		c0,26.02-7.554,49.521-21.823,71.344L253.321,494.213c66.308-0.839,123.384-24.341,170.387-72.184
		c47.003-47.843,70.505-104.918,70.505-171.226C494.213,219.748,489.177,187.013,475.747,159.315"/>
	<path style="fill:#FFE100;" d="M450.567,159.315H334.738c24.341,24.341,41.967,56.236,41.967,91.489
		c0,26.02-10.911,49.521-25.18,71.344L250.803,494.213c66.308-0.839,100.721-24.341,147.725-72.184
		c47.003-47.843,70.505-104.918,70.505-171.226C469.033,219.748,463.997,187.013,450.567,159.315"/>
	<path style="fill:#3DB9F9;" d="M250.803,158.475c50.361,0,92.328,41.967,92.328,92.328s-41.967,92.328-92.328,92.328
		s-92.328-41.967-92.328-92.328S200.443,158.475,250.803,158.475"/>
	<path style="fill:#63D3FD;" d="M225.623,158.475c50.361,0,92.328,41.967,92.328,92.328s-41.967,92.328-92.328,92.328
		c-5.875,0-67.148-41.967-67.148-92.328S219.748,158.475,225.623,158.475"/>
	<path style="fill:#FFFFFF;" d="M250.803,375.026c-24.341,0-47.003-6.715-67.148-20.144c-20.144-13.43-35.252-30.216-45.325-51.2
		L37.61,129.098c-20.984,37.77-30.216,78.898-30.216,121.705c0,61.272,20.144,114.151,59.593,159.475s88.971,72.184,147.725,81.416
		l70.505-122.544C278.502,371.669,265.911,375.026,250.803,375.026"/>
	<path style="fill:#00DA6C;" d="M250.803,375.026c-24.341,0-47.003-6.715-67.148-20.144c-20.144-13.43-40.289-30.216-50.361-51.2
		L57.754,158.475c-20.984,37.77-25.18,49.521-25.18,92.328c0,61.272,20.144,114.151,59.593,159.475s66.308,72.184,125.062,81.416
		l67.987-122.544C278.502,371.669,265.911,375.026,250.803,375.026"/>
	<path style="fill:#E4667F;" d="M174.423,150.082c22.662-17.626,47.843-25.18,76.38-25.18H459.8
		c-21.823-36.931-51.2-63.79-88.131-84.774c-36.931-21.823-77.22-32.734-120.866-32.734c-37.77,0-73.862,8.393-106.597,24.341
		S80.416,71.184,58.593,101.4l70.505,115.829C135.813,190.37,151.761,167.708,174.423,150.082"/>
	<path d="M218.908,500.928l-5.875-0.839c-60.433-9.233-112.472-37.77-152.761-83.934C19.984,369.151-1,313.754-1,250.803
		c0-46.164,10.911-88.131,31.895-125.902l7.554-12.59l107.436,188.013c10.072,20.144,24.341,36.092,42.807,48.682
		c18.466,12.59,40.289,18.466,62.951,18.466c12.59,0,22.662-3.357,29.377-5.036l22.662-6.715L218.908,500.928z M38.449,146.725
		c-15.108,31.056-22.662,66.308-22.662,104.079c0,58.754,19.305,109.954,57.075,153.6c36.931,41.967,83.095,67.987,136.813,77.22
		l57.915-99.882c-5.036,0.839-10.911,1.679-17.626,1.679c-26.02,0-50.361-7.554-72.184-20.984
		c-21.823-14.269-37.77-32.734-48.682-54.557L38.449,146.725z"/>
	<path d="M132.456,238.213L48.521,100.561l3.357-4.197c21.823-29.377,52.879-54.557,88.97-72.184C174.423,7.393,212.193-1,250.803-1
		c45.325,0,87.292,10.911,125.062,33.574c40.289,23.502,69.666,52.039,90.649,88.131l7.554,12.59H250.803
		c-27.698,0-51.2,7.554-71.344,23.502c-21.823,16.787-36.092,37.77-41.967,62.951L132.456,238.213z M68.666,102.239l57.915,95.685
		c8.393-20.984,22.662-38.61,41.967-53.718l0,0c23.502-18.466,50.361-26.859,81.416-26.859h193.889
		c-19.305-27.698-43.646-50.361-77.22-69.666C332.22,26.698,292.77,15.787,250.803,15.787c-36.931,0-71.344,7.554-102.4,23.502
		C115.669,55.236,88.81,76.22,68.666,102.239z"/>
	<path d="M239.052,502.607l107.436-184.656c14.269-20.144,20.984-42.807,20.984-67.148c0-30.216-13.43-60.433-38.61-85.613
		l-14.269-14.269h167.029l2.518,5.036c15.108,33.574,18.466,69.666,18.466,94.846c0,68.826-24.341,128.42-73.023,177.102
		s-107.436,73.862-176.262,74.702H239.052z M353.203,167.708c20.144,25.18,30.216,53.718,30.216,83.095
		c0,27.698-7.554,52.879-23.502,76.38L268.43,484.98c57.915-4.197,107.436-26.859,149.403-68.826
		c45.325-46.164,67.987-101.561,67.987-165.351c0-21.823-2.518-53.718-15.108-83.095H353.203z"/>
	<path d="M250.803,351.525c-54.557,0-100.721-46.164-100.721-100.721s46.164-100.721,100.721-100.721
		s100.721,46.164,100.721,100.721S305.361,351.525,250.803,351.525z M250.803,166.869c-45.325,0-83.934,38.61-83.934,83.934
		s38.61,83.934,83.934,83.934s83.934-38.61,83.934-83.934S296.128,166.869,250.803,166.869z"/>
</g>
<g>
</g>
<g>
</g>
<g>
</g>
<g>
</g>
<g>
</g>
<g>
</g>
<g>
</g>
<g>
</g>
<g>
</g>
<g>
</g>
<g>
</g>
<g>
</g>
<g>
</g>
<g>
</g>
<g>
</g>
</svg>
