<?xml version="1.0" encoding="iso-8859-1"?>
<!-- Generator: Adobe Illustrator 19.0.0, SVG Export Plug-In . SVG Version: 6.00 Build 0)  -->
<svg version="1.1" id="Layer_1" xmlns="http://www.w3.org/2000/svg" xmlns:xlink="http://www.w3.org/1999/xlink" x="0px" y="0px"
	 viewBox="0 0 512 512" style="enable-background:new 0 0 512 512;" xml:space="preserve">
<g transform="translate(1 1)">
	<path style="fill:#FFE100;" d="M311.32,286.573C299.373,365.933,220.867,408.6,186.733,408.6c-86.187,0-153.6-67.413-153.6-153.6
		s69.12-153.6,155.307-153.6c14.507,0,52.907,11.947,79.36,37.547l-45.227,45.227c-14.507-15.36-35.84-23.04-59.733-23.04
		c-51.2,0-95.573,42.667-95.573,93.867s44.373,93.867,95.573,93.867c42.667,0,75.093-27.307,84.48-68.267h-86.187v-59.733H311.32
		c1.707,10.24,2.56,23.04,2.56,34.133C313.88,266.093,313.027,276.333,311.32,286.573"/>
	<path style="fill:#FFFFFF;" d="M33.133,255c0-82.773,63.147-147.627,144.213-152.747c-4.267-0.853-9.387-0.853-14.507-0.853
		C76.653,101.4,7.533,168.813,7.533,255s69.12,153.6,155.307,153.6c4.267,0,9.387,0,13.653-0.853
		C95.427,403.48,33.133,337.773,33.133,255"/>
	<polygon style="fill:#FFE100;" points="476.867,263.533 451.267,263.533 451.267,314.733 408.6,314.733 408.6,263.533 383,263.533 
		383,220.867 408.6,220.867 408.6,169.667 451.267,169.667 451.267,220.867 476.867,220.867 	"/>
	<polygon style="fill:#FFA800;" points="476.867,263.533 502.467,263.533 502.467,220.867 476.867,220.867 	"/>
	<polygon style="fill:#FFE100;" points="357.4,263.533 383,263.533 383,220.867 357.4,220.867 	"/>
	<path d="M162.84,417.133C70.68,417.133-1,346.307-1,255c0-40.107,14.507-78.507,40.96-108.373
		c3.413-3.413,8.533-3.413,11.947-0.853c3.413,3.413,3.413,8.533,0.853,11.947C28.867,184.173,16.067,219.16,16.067,255
		c0,81.067,64.853,145.067,146.773,145.067c76.8,0,128.853-42.667,139.947-115.2c1.707-9.387,2.56-19.627,2.56-29.867
		c0-8.533-0.853-17.92-1.707-25.6H169.667v42.667h77.653c2.56,0,5.12,0.853,6.827,3.413c1.707,1.707,2.56,4.267,1.707,6.827
		c-10.24,45.227-46.933,75.093-93.013,75.093c-56.32,0-104.107-46.933-104.107-102.4S106.52,152.6,162.84,152.6
		c23.893,0,44.373,6.827,59.733,19.627l33.28-33.28c-23.893-18.773-54.613-29.013-93.013-29.013c-23.893,0-46.08,5.12-66.56,15.36
		c-4.267,1.707-9.387,0-11.093-4.267c-1.707-4.267,0-9.387,4.267-11.093c23.04-11.093,47.787-17.067,73.387-17.067
		c46.08,0,84.48,13.653,110.933,40.107c1.707,1.707,2.56,3.413,2.56,5.973s-0.853,4.267-2.56,5.973L229.4,190.147
		c-1.707,1.707-3.413,2.56-5.973,2.56l0,0c-2.56,0-4.267-0.853-5.973-2.56c-13.653-13.653-32.427-20.48-54.613-20.48
		c-46.08,0-87.04,40.107-87.04,85.333s40.96,85.333,87.04,85.333c34.987,0,61.44-19.627,73.387-51.2h-75.093
		c-5.12,0-8.533-3.413-8.533-8.533v-59.733c0-5.12,3.413-8.533,8.533-8.533H311.32c4.267,0,7.68,2.56,8.533,6.827
		c1.707,10.24,2.56,23.04,2.56,35.84c0,11.093-0.853,22.187-2.56,32.427C307.907,367.64,247.32,417.133,162.84,417.133z"/>
	<path d="M75.8,135.533c0-5.12-3.413-8.533-8.533-8.533s-8.533,3.413-8.533,8.533s3.413,8.533,8.533,8.533
		S75.8,140.653,75.8,135.533"/>
	<path d="M459.8,323.267h-59.733v-51.2h-51.2v-59.733h51.2v-51.2H459.8v51.2H511v59.733h-51.2V323.267z M417.133,306.2h25.6V255
		h51.2v-25.6h-51.2v-51.2h-25.6v51.2h-51.2V255h51.2V306.2z"/>
</g>
<g>
</g>
<g>
</g>
<g>
</g>
<g>
</g>
<g>
</g>
<g>
</g>
<g>
</g>
<g>
</g>
<g>
</g>
<g>
</g>
<g>
</g>
<g>
</g>
<g>
</g>
<g>
</g>
<g>
</g>
</svg>
