<?xml version="1.0" encoding="iso-8859-1"?>
<!-- Generator: Adobe Illustrator 19.0.0, SVG Export Plug-In . SVG Version: 6.00 Build 0)  -->
<svg version="1.1" id="Layer_1" xmlns="http://www.w3.org/2000/svg" xmlns:xlink="http://www.w3.org/1999/xlink" x="0px" y="0px"
	 viewBox="0 0 512.035 512.035" style="enable-background:new 0 0 512.035 512.035;" xml:space="preserve">
<g transform="translate(1 1)">
	<path style="fill:#FFA800;" d="M364.36,182.14l-67.688,68.556l67.688,68.556l105.003-60.746c6.075-3.471,6.075-11.281,0-14.753
		L364.36,182.14z"/>
	<path style="fill:#FFE100;" d="M364.36,182.14l-67.688,68.556l67.688,68.556l66.82-60.746c6.075-3.471,6.075-11.281,0-14.753
		L364.36,182.14z"/>
	<polygon style="fill:#E4667F;" points="36.333,502.357 36.333,502.357 261.092,378.262 364.36,319.252 296.672,250.696 	"/>
	<polygon style="fill:#00DA6C;" points="364.36,182.14 261.092,123.13 36.333,7.713 296.672,250.696 	"/>
	<polygon style="fill:#FFFFFF;" points="36.333,7.713 36.333,250.696 36.333,502.357 296.672,250.696 	"/>
	<polygon style="fill:#63D3FD;" points="62.367,25.069 62.367,250.696 62.367,476.323 296.672,250.696 	"/>
	<path d="M36.333,511.035c-0.868,0-2.603,0-3.471-0.868c-3.471-1.736-5.207-4.339-5.207-7.81V7.713c0-3.471,1.736-6.942,5.207-7.81
		c3.471-1.736,6.942-0.868,9.546,1.736l260.339,242.983c1.736,1.736,2.603,3.471,2.603,6.075c0,2.603-0.868,4.339-2.603,6.075
		L42.407,508.432C40.672,510.167,38.936,511.035,36.333,511.035z M45.011,27.672V481.53l238.644-230.834L45.011,27.672z"/>
	<path d="M296.672,259.374c-1.736,0-4.339-0.868-6.075-2.603L30.258,13.788c-2.603-2.603-3.471-7.81-0.868-11.281
		s6.942-4.339,11.281-2.603L265.431,115.32l104.136,59.878c2.603,1.736,4.339,3.471,4.339,6.075s-0.868,5.207-2.603,6.942
		l-67.688,68.556C301.011,258.506,299.275,259.374,296.672,259.374z M87.533,44.161l209.139,194.386l53.803-54.671l-93.722-53.803
		L87.533,44.161z"/>
	<path d="M473.702,235.076L368.699,174.33c-3.471-1.736-7.81-0.868-10.414,1.736l-65.085,65.953c-0.868,0-1.736,0.868-2.603,1.736
		L30.258,495.415c-1.736,1.736-2.603,4.339-2.603,6.942c0,3.471,1.736,6.075,4.339,7.81c0.868,0.868,2.603,0.868,4.339,0.868
		s2.603,0,4.339-0.868l224.759-124.963l208.271-120.624c5.207-2.603,8.678-8.678,8.678-14.753
		C482.38,243.754,478.909,238.547,473.702,235.076z M256.753,370.452L88.401,463.306l208.271-200.461l52.936,53.803L256.753,370.452
		z M366.096,307.971l-57.275-57.275l57.275-57.275l98.929,57.275L366.096,307.971z"/>
</g>
<g>
</g>
<g>
</g>
<g>
</g>
<g>
</g>
<g>
</g>
<g>
</g>
<g>
</g>
<g>
</g>
<g>
</g>
<g>
</g>
<g>
</g>
<g>
</g>
<g>
</g>
<g>
</g>
<g>
</g>
</svg>
