<?xml version="1.0" encoding="iso-8859-1"?>
<!-- Generator: Adobe Illustrator 19.0.0, SVG Export Plug-In . SVG Version: 6.00 Build 0)  -->
<svg version="1.1" id="Layer_1" xmlns="http://www.w3.org/2000/svg" xmlns:xlink="http://www.w3.org/1999/xlink" x="0px" y="0px"
	 viewBox="0 0 512 512" style="enable-background:new 0 0 512 512;" xml:space="preserve">
<g transform="translate(0 1)">
	<path style="fill:#FFE100;" d="M477.867,471.747c0,17.067-12.8,30.72-27.307,30.72H61.44c-14.507,0-27.307-13.653-27.307-30.72
		V38.253c0-17.067,12.8-30.72,27.307-30.72h388.267c15.36,0,28.16,13.653,28.16,30.72V471.747z"/>
	<path style="fill:#FFFFFF;" d="M34.133,471.747V38.253c0-17.067,12.8-30.72,27.307-30.72H39.253
		c-17.067,0-30.72,13.653-30.72,30.72v433.493c0,17.067,13.653,30.72,30.72,30.72H61.44
		C46.933,502.467,34.133,488.813,34.133,471.747"/>
	<path style="fill:#FFA800;" d="M472.747,7.533H450.56c14.507,0,27.307,13.653,27.307,30.72v433.493
		c0,17.067-12.8,30.72-27.307,30.72h22.187c17.067,0,30.72-13.653,30.72-30.72V38.253C503.467,21.187,489.813,7.533,472.747,7.533"
		/>
	<path style="fill:#63D3FD;" d="M284.16,255l57.173-81.92c14.507-21.333,9.387-50.347-11.093-64.853
		c-21.333-14.507-24.747-9.387-39.253,11.093l-69.12,100.693v-73.387c0-25.6-22.187-46.08-47.787-46.08S128,121.027,128,146.627
		v216.747c0,25.6,20.48,46.08,46.08,46.08s47.787-20.48,47.787-46.08v-74.24l69.12,100.693
		c14.507,21.333,17.92,26.453,39.253,11.093c21.333-14.507,26.453-43.52,11.093-64.853L284.16,255z"/>
	<path style="fill:#3DB9F9;" d="M364.373,337.773l-57.173-81.92l57.173-81.92c14.507-21.333,9.387-49.493-11.093-64.853
		c-11.093-7.68-24.747-10.24-37.547-6.827c3.413,1.707,6.827,3.413,11.947,6.827c21.333,14.507,26.453,43.52,11.093,64.853
		l-57.173,81.92l57.173,81.92c14.507,21.333,9.387,50.347-11.093,64.853c-5.12,3.413-8.533,5.973-11.947,6.827
		c12.8,3.413,26.453,0.853,37.547-6.827C373.76,387.267,378.88,358.253,364.373,337.773"/>
	<path d="M472.747,511H39.253C17.92,511,0,493.08,0,471.747V127c0-5.12,3.413-8.533,8.533-8.533s8.533,3.413,8.533,8.533v344.747
		c0,11.947,10.24,22.187,22.187,22.187h433.493c11.947,0,22.187-10.24,22.187-22.187V38.253c0-11.947-10.24-22.187-22.187-22.187
		H39.253c-11.947,0-22.187,10.24-22.187,22.187v20.48c0,5.12-3.413,8.533-8.533,8.533S0,63.853,0,58.733v-20.48
		C0,16.92,17.92-1,39.253-1h433.493C494.08-1,512,16.92,512,38.253v433.493C512,493.08,494.08,511,472.747,511z"/>
	<path d="M17.067,92.867c0-5.12-3.413-8.533-8.533-8.533S0,87.747,0,92.867s3.413,8.533,8.533,8.533S17.067,97.987,17.067,92.867"/>
	<path d="M329.387,417.987c-3.413,0-6.827,0-9.387-0.853c-14.507-2.56-27.307-10.24-35.84-22.187l-53.76-77.653v46.08
		c0,29.867-24.747,54.613-56.32,54.613c-29.867,0-54.613-24.747-54.613-54.613V146.627c0-29.867,24.747-54.613,54.613-54.613
		c30.72,0,56.32,24.747,56.32,54.613v46.08l53.76-77.653c8.533-11.947,21.333-20.48,35.84-23.04
		c14.507-2.56,29.013,0.853,40.96,9.387c11.947,8.533,19.627,21.333,22.187,35.84s-0.853,29.013-9.387,40.96L320,255l53.76,76.8
		c8.533,11.947,11.947,26.453,9.387,40.96c-2.56,14.507-10.24,27.307-22.187,35.84C351.573,414.573,340.48,417.987,329.387,417.987z
		 M213.333,261.827l84.48,122.88c5.973,8.533,14.507,13.653,24.747,15.36c10.24,1.707,19.627-0.853,28.16-5.973
		c8.533-5.973,13.653-14.507,15.36-24.747c1.707-10.24-0.853-19.627-5.973-28.16L299.52,255l60.587-86.187
		c5.973-8.533,7.68-17.92,5.973-28.16c-1.707-10.24-7.68-18.773-15.36-24.747c-8.533-5.973-17.92-7.68-28.16-5.973
		c-10.24,1.707-18.773,7.68-24.747,15.36l-84.48,122.88V146.627c0-20.48-17.92-37.547-39.253-37.547
		c-20.48,0-37.547,17.067-37.547,37.547v216.747c0,20.48,17.067,37.547,37.547,37.547c21.333,0,39.253-17.067,39.253-37.547V261.827
		z"/>
</g>
<g>
</g>
<g>
</g>
<g>
</g>
<g>
</g>
<g>
</g>
<g>
</g>
<g>
</g>
<g>
</g>
<g>
</g>
<g>
</g>
<g>
</g>
<g>
</g>
<g>
</g>
<g>
</g>
<g>
</g>
</svg>
