<?xml version="1.0" encoding="iso-8859-1"?>
<!-- Generator: Adobe Illustrator 19.0.0, SVG Export Plug-In . SVG Version: 6.00 Build 0)  -->
<svg version="1.1" id="Layer_1" xmlns="http://www.w3.org/2000/svg" xmlns:xlink="http://www.w3.org/1999/xlink" x="0px" y="0px"
	 viewBox="0 0 512 512" style="enable-background:new 0 0 512 512;" xml:space="preserve">
<g transform="translate(1 1)">
	<path style="fill:#FFE100;" d="M346.307,291.693c0,11.947-1.707,27.307-3.413,44.373c-1.707,17.067-5.12,31.573-8.533,42.667
		c-4.267,11.947-8.533,23.04-14.507,34.133c-5.973,11.093-14.507,19.627-23.893,25.6C285.72,444.44,274.627,447,261.827,447
		c-12.8,0-23.893-2.56-33.28-8.533c-9.387-5.973-17.067-14.507-23.893-25.6c-5.973-11.093-11.093-23.04-14.507-34.133
		c-3.413-11.947-5.973-25.6-7.68-42.667c-1.707-17.067-2.56-31.573-3.413-43.52c-0.853-11.947-0.853-26.453-0.853-44.373
		c0-27.307,0.853-51.2,2.56-70.827s5.973-38.4,11.093-58.027c5.12-19.627,13.653-34.133,25.6-44.373
		c11.947-10.24,26.453-15.36,44.373-15.36c17.92,0,33.28,5.12,44.373,15.36c11.947,10.24,20.48,24.747,26.453,44.373
		c5.973,18.773,9.387,38.4,11.947,58.88c1.707,19.627,2.56,43.52,2.56,69.973C347.16,265.24,347.16,279.747,346.307,291.693
		 M392.387,74.947C348.013,29.72,329.24,7.533,261.827,7.533c-68.267,0-102.4,22.187-145.067,67.413S48.493,179.053,48.493,252.44
		c0,67.413,24.747,125.44,68.267,174.933s77.653,74.24,145.067,74.24s87.04-24.747,130.56-74.24
		c44.373-49.493,65.707-107.52,65.707-174.933C458.093,179.907,435.907,120.173,392.387,74.947"/>
	<path style="fill:#FFFFFF;" d="M116.76,428.227c-43.52-49.493-68.267-107.52-68.267-174.933c0-73.387,25.6-133.12,68.267-177.493
		c41.813-44.373,75.093-66.56,140.8-67.413c-0.853,0-2.56,0-3.413,0c-68.267,0-123.733,22.187-166.4,67.413
		c-43.52,44.373-64.853,104.107-64.853,177.493c0,67.413,22.187,125.44,65.707,174.933s98.987,74.24,165.547,74.24
		c1.707,0,2.56,0,3.413,0C193.56,501.613,159.427,476.867,116.76,428.227"/>
	<path style="fill:#FFA800;" d="M420.547,74.947c-30.72-31.573-68.267-52.907-110.933-61.44c32.427,9.387,51.2,29.867,81.92,61.44
		c44.373,45.227,65.707,104.107,65.707,177.493c0,67.413-22.187,125.44-65.707,174.933c-30.72,34.987-50.347,58.027-81.92,68.267
		c42.667-10.24,80.213-33.28,110.933-68.267c44.373-49.493,65.707-107.52,65.707-174.933
		C487.107,179.907,464.92,120.173,420.547,74.947"/>
	<path d="M254.147,511c-69.12,0-127.147-25.6-172.373-77.653C37.4,383,14.36,321.56,14.36,253.293
		c0-75.093,22.187-137.387,66.56-183.467C125.293,22.893,184.173-1,254.147-1c69.12,0,128,23.893,173.227,69.973l0,0
		C472.6,115.907,495.64,177.347,495.64,252.44c0,69.12-23.04,129.707-68.267,180.907C382.147,485.4,323.267,511,254.147,511z
		 M254.147,16.067c-64.853,0-119.467,22.187-160.427,64.853c-40.96,43.52-62.293,101.547-62.293,172.373
		c0,64,21.333,121.173,63.147,168.96s95.573,71.68,159.573,71.68c64.853,0,118.613-23.893,160.427-71.68
		c42.667-47.787,64-104.96,64-168.96c0-70.827-21.333-128.853-63.147-171.52l0,0C372.76,38.253,319,16.067,254.147,16.067z"/>
	<path d="M254.147,455.533c-14.507,0-27.307-3.413-38.4-10.24c-11.093-6.827-19.627-16.213-26.453-29.013
		c-5.973-11.947-11.093-23.893-15.36-35.84c-3.413-11.947-6.827-27.307-7.68-44.373c-1.707-17.067-2.56-31.573-3.413-43.52
		s-0.853-27.307-0.853-44.373c0-28.16,0.853-52.053,2.56-71.68s5.973-40.107,11.093-59.733c5.973-20.48,15.36-36.693,28.16-47.787
		c12.8-11.093,29.867-17.067,49.493-17.067s36.693,5.973,50.347,17.92c12.8,11.093,23.04,27.307,29.013,47.787
		c5.973,19.627,10.24,40.107,11.947,59.733c1.707,19.627,2.56,43.52,2.56,70.827c0,17.067,0,31.573-0.853,43.52
		c0,12.8-1.707,27.307-3.413,44.373c-1.707,17.92-5.12,32.427-9.387,44.373s-9.387,23.893-15.36,35.84
		c-6.827,12.8-16.213,22.187-27.307,29.013C281.453,452.973,267.8,455.533,254.147,455.533z M254.147,68.973
		c-16.213,0-29.013,4.267-38.4,12.8c-10.24,8.533-17.92,22.187-23.04,40.107c-5.12,18.773-8.533,37.547-11.093,56.32
		c-1.707,18.773-2.56,42.667-2.56,69.973c0,17.067,0,31.573,0.853,43.52c0.853,11.947,1.707,26.453,3.413,43.52
		c1.707,16.213,4.267,29.867,7.68,40.96c3.413,11.093,7.68,22.187,13.653,32.427c5.12,10.24,11.947,17.067,20.48,22.187
		c8.533,5.12,17.92,7.68,29.013,7.68c11.093,0,21.333-2.56,29.867-7.68c8.533-5.12,15.36-11.947,20.48-22.187
		c5.973-11.093,10.24-22.187,14.507-33.28c3.413-11.093,6.827-24.747,8.533-40.96c1.707-16.213,3.413-31.573,3.413-43.52
		c0-11.947,0.853-26.453,0.853-43.52c0-26.453-0.853-49.493-2.56-69.12l0,0c-1.707-19.627-5.973-38.4-11.093-57.173
		c-5.12-17.067-13.653-30.72-23.893-40.107C282.307,73.24,269.507,68.973,254.147,68.973z"/>
</g>
<g>
</g>
<g>
</g>
<g>
</g>
<g>
</g>
<g>
</g>
<g>
</g>
<g>
</g>
<g>
</g>
<g>
</g>
<g>
</g>
<g>
</g>
<g>
</g>
<g>
</g>
<g>
</g>
<g>
</g>
</svg>
