<?xml version="1.0" encoding="iso-8859-1"?>
<!-- Generator: Adobe Illustrator 19.0.0, SVG Export Plug-In . SVG Version: 6.00 Build 0)  -->
<svg version="1.1" id="Layer_1" xmlns="http://www.w3.org/2000/svg" xmlns:xlink="http://www.w3.org/1999/xlink" x="0px" y="0px"
	 viewBox="0 0 512.069 512.069" style="enable-background:new 0 0 512.069 512.069;" xml:space="preserve">
<path style="fill:#FFE100;" d="M335.554,157.935c-11.093,80.213-134.827,69.12-134.827,69.12c-19.627-6.827-12.8-27.307-12.8-27.307
	l18.773-81.067c0,0,5.973-22.187,25.6-25.6s42.667,0.853,51.2,2.56C352.621,108.442,334.701,155.375,335.554,157.935 M262.167,8.602
	h-93.013c0,0-29.867-1.707-37.547,29.867l-94.72,397.653c0,0-4.267,24.747,22.187,24.747h37.547c0,0,36.693,1.707,42.667-30.72
	l17.067-91.307c0,0,5.12-25.6,34.133-25.6s204.8,7.68,248.32-132.267C455.021,129.775,462.701,8.602,262.167,8.602"/>
<path style="fill:#FFA800;" d="M287.767,8.602h-25.6c200.533,0,192,121.173,175.787,172.373
	c-40.107,126.293-187.733,132.267-236.373,132.267c52.053,0,219.307-5.12,258.56-132.267
	C477.207,129.775,488.301,8.602,287.767,8.602"/>
<path style="fill:#FFFFFF;" d="M36.887,436.122l94.72-397.653c6.827-28.16,30.72-29.867,36.693-29.867h-24.747
	c0,0-29.867-1.707-37.547,29.867l-94.72,397.653c0,0-4.267,24.747,22.187,24.747h25.6C32.621,460.869,36.887,436.122,36.887,436.122
	"/>
<g>
	<path style="fill:#FDCC00;" d="M11.287,486.469c0,9.387,7.68,17.067,17.067,17.067h110.933c0,0,25.6,1.707,31.573-30.72
		l21.333-91.307c0,0,6.827-26.453,34.987-26.453c29.013,0,201.387,7.68,244.907-132.267c9.387-31.573,14.507-113.493-26.453-153.6
		c23.893,37.547,25.6,83.627,17.067,110.933c-43.52,139.947-244.907,132.267-273.067,132.267c-29.013,0-34.987,25.6-34.987,25.6
		l-21.333,91.307c-5.973,31.573-35.84,30.72-35.84,30.72h-64c-25.6,0-22.187-17.067-22.187-17.067V486.469z"/>
	<path style="fill:#FDCC00;" d="M335.554,355.909L335.554,355.909c1.707,0,3.413,0,5.12,0
		C338.114,355.909,336.407,355.909,335.554,355.909"/>
	<path style="fill:#FDCC00;" d="M309.954,313.242c-2.56,0-4.267,0-6.827,0C304.834,313.242,307.394,313.242,309.954,313.242"/>
	<path style="fill:#FDCC00;" d="M118.807,486.469v-36.693v-0.853V486.469c0,9.387,7.68,17.067,17.067,17.067l0,0
		C126.487,503.535,118.807,495.855,118.807,486.469"/>
</g>
<path style="fill:#FFA800;" d="M449.047,68.335c11.093,17.067,15.36,36.693,16.213,54.613c11.093,37.547,10.24,78.507,4.267,98.133
	c-40.107,127.147-185.173,133.12-233.813,133.12c52.053,0,218.453-5.12,258.56-132.267
	C504.514,190.362,490.007,108.442,449.047,68.335"/>
<g>
	<path style="fill:#FDCC00;" d="M246.807,503.535L246.807,503.535L246.807,503.535L246.807,503.535"/>
	<path style="fill:#FDCC00;" d="M118.807,448.069v-4.267C118.807,443.802,117.954,445.509,118.807,448.069"/>
</g>
<path d="M99.181,469.402c-0.853,0-0.853,0-1.707,0h-64c-12.8,0-19.627-5.12-23.893-9.387c-8.533-10.24-6.827-23.893-6.827-25.6
	l69.12-291.84c0.853-4.267,5.973-7.68,10.24-5.973c4.267,0.853,7.68,5.973,5.973,10.24L19.821,437.829c0,1.707,0,7.68,2.56,11.093
	c2.56,2.56,5.973,3.413,11.093,3.413h64.853c2.56,0,23.04,0,27.307-23.04l21.333-91.307c2.56-11.093,15.36-32.427,43.52-32.427
	h4.267c139.947,1.707,232.107-43.52,258.56-126.293c5.973-19.627,17.92-69.973-11.093-108.373
	c-25.6-34.987-77.653-52.907-153.6-52.907H143.554c-2.56,0-23.893,0-29.013,23.04l-9.387,37.547
	c-0.853,4.267-5.973,7.68-10.24,5.973c-4.267-0.853-7.68-5.973-5.973-10.24l9.387-38.4c6.827-29.867,32.427-36.693,45.227-35.84
	h144.213c81.92,0,139.093,20.48,168.107,59.733c33.28,45.227,20.48,101.547,13.653,123.733
	c-28.16,90.453-126.293,139.947-274.773,138.24h-4.267c-21.333,0-26.453,17.92-27.307,19.627l-21.333,91.307
	C136.727,461.722,112.834,469.402,99.181,469.402z"/>
<path d="M96.621,111.002c0-5.12-3.413-8.533-8.533-8.533s-8.533,3.413-8.533,8.533s3.413,8.533,8.533,8.533
	S96.621,116.122,96.621,111.002"/>
<path d="M216.087,235.589c-9.387,0-16.213-0.853-16.213-0.853l-1.707-0.853c-10.24-3.413-14.507-10.24-17.067-14.507
	c-4.267-10.24-1.707-20.48-0.853-23.04l18.773-80.213c0-1.707,7.68-27.307,32.427-31.573c21.333-3.413,55.467,0.853,64.853,2.56
	c19.627,3.413,34.133,11.947,42.667,25.6c13.653,21.333,8.533,46.08,7.68,46.933c-5.12,35.84-32.427,60.587-80.213,70.827
	C247.661,234.735,228.887,235.589,216.087,235.589z M202.434,217.669c11.947,0.853,119.467,5.973,128.853-61.44
	c0-0.853,4.267-19.627-5.973-34.133c-5.973-9.387-17.067-15.36-31.573-17.92c-9.387-1.707-41.813-5.12-58.88-2.56
	c-13.653,2.56-18.773,18.773-18.773,18.773l-19.627,81.067c0,0-0.853,3.413-0.853,7.68
	C195.607,212.549,196.461,215.962,202.434,217.669z"/>
<path d="M140.141,512.069c-0.853,0-0.853,0-1.707,0H28.354c-14.507,0-25.6-11.947-25.6-25.6v-37.547c-0.853-3.413,0-6.827,0-6.827
	c0.853-4.267,5.12-6.827,9.387-6.827c4.267,0.853,7.68,4.267,7.68,8.533v3.413c0,0.853,0,0.853,0.853,1.707
	c1.707,2.56,6.827,3.413,12.8,3.413h64.853c2.56,0,23.04,0,27.307-23.04l21.333-91.307c2.56-11.093,15.36-32.427,43.52-32.427h4.267
	c140.8,1.707,232.107-43.52,258.56-126.293c5.973-18.773,16.213-65.707-7.68-103.253c-2.56-3.413-1.707-8.533,1.707-11.093
	c3.413-2.56,8.533-2.56,11.093,0.853c43.52,41.813,58.88,127.147,47.787,162.133c-28.16,90.453-125.44,139.947-274.773,138.24
	h-4.267c-21.333,0-26.453,17.92-27.307,19.627l-21.333,91.307C173.421,504.389,152.087,512.069,140.141,512.069z M19.821,467.695
	v18.773c0,5.12,4.267,8.533,8.533,8.533h110.933c2.56,0,18.773,0,23.04-23.04l21.333-91.307c2.56-11.093,15.36-32.427,43.52-32.427
	h4.267c142.507,0.853,232.107-42.667,258.56-126.293c5.973-17.92,1.707-58.88-12.8-95.573c0.853,24.747-4.267,46.933-8.533,58.027
	c-27.307,88.747-122.88,137.387-268.8,137.387c-1.707,0-3.413,0-5.973,0h-4.267c-21.333,0-26.453,17.92-27.307,19.627
	l-21.333,91.307c-5.973,30.72-31.573,37.547-44.373,36.693h-64C28.354,469.402,24.087,468.549,19.821,467.695z"/>
<g>
</g>
<g>
</g>
<g>
</g>
<g>
</g>
<g>
</g>
<g>
</g>
<g>
</g>
<g>
</g>
<g>
</g>
<g>
</g>
<g>
</g>
<g>
</g>
<g>
</g>
<g>
</g>
<g>
</g>
</svg>
