<?xml version="1.0" encoding="iso-8859-1"?>
<!-- Generator: Adobe Illustrator 19.0.0, SVG Export Plug-In . SVG Version: 6.00 Build 0)  -->
<svg version="1.1" id="Layer_1" xmlns="http://www.w3.org/2000/svg" xmlns:xlink="http://www.w3.org/1999/xlink" x="0px" y="0px"
	 viewBox="0 0 512 512" style="enable-background:new 0 0 512 512;" xml:space="preserve">
<g transform="translate(1)">
	<path style="fill:#63D3FD;" d="M331.8,161.789V16.722C299.373,2.216,290.84,8.189,255,8.189c-26.453,0-52.053,4.267-76.8,12.8
		L331.8,161.789z"/>
	<path style="fill:#3DB9F9;" d="M357.4,187.389V30.376c-8.533-3.413-17.067-6.827-25.6-10.24v141.653L357.4,187.389z"/>
	<path style="fill:#63D3FD;" d="M55.32,358.056c20.48,45.227,28.16,83.627,71.68,110.08V264.189L55.32,358.056z"/>
	<path style="fill:#FFFFFF;" d="M55.32,358.056L127,264.189l-97.28,93.867c18.773,42.667,50.347,78.507,89.6,104.96
		C82.627,437.416,74.093,400.722,55.32,358.056"/>
	<path style="fill:#FFE100;" d="M33.133,256.509c0,21.333,2.56,19.627,8.533,41.813c6.827-5.973,192-172.373,196.267-176.64
		c-4.267-3.413-82.773-76.8-85.333-79.36C69.827,84.989,33.133,163.496,33.133,256.509"/>
	<path style="fill:#FFFFFF;" d="M33.133,259.922c0-92.16,35.84-169.813,116.907-213.333c-4.267-4.267-6.827-6.827-7.68-6.827
		C58.733,82.429,7.533,166.056,7.533,259.922c0,21.333,3.413,42.667,9.387,64c1.707-0.853,11.093-10.24,24.747-23.04
		C35.693,279.549,33.133,281.256,33.133,259.922"/>
	<path style="fill:#00DA6C;" d="M161.133,486.056c23.04,9.387,46.933,14.507,70.827,17.067h11.093
		c85.333-7.68,162.133-58.027,199.68-136.533h-281.6V486.056z"/>
	<g>
		<path style="fill:#00AD55;" d="M161.133,366.589L161.133,366.589v119.467c23.04,9.387,46.933,14.507,70.827,17.067l0,0
			c-23.893-2.56-47.787-7.68-70.827-17.067V366.589z"/>
		<path style="fill:#00AD55;" d="M442.733,366.589c-37.547,78.507-114.347,128.853-199.68,136.533h34.133
			c85.333-7.68,162.133-58.027,199.68-136.533H442.733z"/>
	</g>
	<path style="fill:#FFE100;" d="M465.773,332.456c7.68-23.893,11.093-51.2,11.093-75.947c0-82.773-17.067-159.573-85.333-205.653
		v281.6H465.773z"/>
	<path style="fill:#FFA800;" d="M391.533,50.856c68.267,45.227,85.333,122.88,85.333,205.653c0,24.747-4.267,51.2-11.093,75.947
		h25.6c7.68-23.893,11.093-51.2,11.093-75.947C502.467,173.736,459.8,96.082,391.533,50.856"/>
	<path d="M365.933,207.016L161.987,17.576l13.653-4.267c63.147-20.48,128-16.213,185.173,9.387l5.12,2.56V207.016z M195.267,24.402
		l153.6,143.36V35.496C301.08,15.016,247.32,10.749,195.267,24.402z"/>
	<path d="M135.533,483.496l-12.8-7.68c-44.373-27.307-79.36-66.56-100.693-114.347l-2.56-5.12l116.053-112.64V483.496z
		 M39.96,359.762c17.92,37.547,44.373,69.12,78.507,93.013V284.669L39.96,359.762z"/>
	<path d="M16.92,329.896c-0.853,0-1.707,0-2.56,0c-2.56-0.853-5.12-3.413-5.973-5.973C2.413,300.882-1,277.842-1,256.509
		c0-52.053,15.36-101.547,44.373-143.36c2.56-4.267,7.68-5.12,11.947-2.56c3.413,3.413,4.267,8.533,1.707,11.947
		c-26.453,40.107-40.96,86.187-40.96,133.973c0,15.36,1.707,31.573,5.12,48.64C59.587,270.162,191,150.696,222.573,121.682
		c-18.773-17.067-67.413-60.587-81.92-74.24c-17.92,9.387-34.133,21.333-49.493,34.987c-3.413,3.413-8.533,3.413-11.947-0.853
		c-3.413-3.413-3.413-8.533,0.853-11.947c17.067-16.213,36.693-29.867,58.027-40.96c3.413-1.707,6.827-0.853,9.387,1.707
		c2.56,2.56,89.6,81.067,93.867,84.48c1.707,1.707,2.56,4.267,2.56,5.973c0,2.56-0.853,5.12-2.56,5.973
		c-4.267,5.12-212.48,194.56-219.307,200.533C20.333,329.042,18.627,329.896,16.92,329.896z"/>
	<path d="M74.093,95.229c0-5.12-3.413-8.533-8.533-8.533s-8.533,3.413-8.533,8.533s3.413,8.533,8.533,8.533
		S74.093,100.349,74.093,95.229"/>
	<path d="M231.96,511.656c-25.6-2.56-50.347-8.533-74.24-17.92l-5.12-1.707V358.056h337.92l-5.973,11.947
		c-38.4,80.213-116.053,133.12-206.507,141.653H231.96z M169.667,480.082c20.48,7.68,40.96,12.8,63.147,14.507h44.373
		c79.36-7.68,147.627-52.053,186.027-119.467H169.667V480.082z"/>
	<path d="M497.347,340.989H383V35.496l13.653,8.533C468.333,91.816,511,171.176,511,256.509c0,25.6-4.267,53.76-11.947,77.653
		L497.347,340.989z M400.067,323.922h84.48c5.973-21.333,9.387-45.227,9.387-67.413c0-74.24-34.987-143.36-93.867-188.587V323.922z"
		/>
</g>
<g>
</g>
<g>
</g>
<g>
</g>
<g>
</g>
<g>
</g>
<g>
</g>
<g>
</g>
<g>
</g>
<g>
</g>
<g>
</g>
<g>
</g>
<g>
</g>
<g>
</g>
<g>
</g>
<g>
</g>
</svg>
