<?xml version="1.0" encoding="iso-8859-1"?>
<!-- Generator: Adobe Illustrator 19.0.0, SVG Export Plug-In . SVG Version: 6.00 Build 0)  -->
<svg version="1.1" id="Layer_1" xmlns="http://www.w3.org/2000/svg" xmlns:xlink="http://www.w3.org/1999/xlink" x="0px" y="0px"
	 viewBox="0 0 512 512" style="enable-background:new 0 0 512 512;" xml:space="preserve">
<g transform="translate(1)">
	<path style="fill:#FFFFFF;" d="M37.4,250.88c0-132.267,80.213-240.64,209.067-247.467C115.907,11.093,11.8,118.613,11.8,250.88
		c0,101.547,60.587,188.587,148.48,226.987v-0.853C74.093,438.613,37.4,351.573,37.4,250.88"/>
	<path style="fill:#FFE100;" d="M255,8.533C118.467,8.533,33.133,119.467,33.133,256c0,101.547,37.547,188.587,124.587,226.987
		c-0.853-17.067-0.853-38.4,3.413-57.173c5.12-20.48,34.133-134.827,34.133-134.827s-7.68-16.213-7.68-39.253
		c0-36.693,17.92-64,44.373-64c22.187,0,33.28,17.067,33.28,37.547c0,22.187-14.507,56.32-22.187,87.893
		c-5.973,26.453,12.8,47.787,39.253,47.787c46.933,0,75.093-60.587,75.093-131.413c0-54.613-33.28-94.72-99.84-94.72
		c-75.093,0-118.613,56.32-118.613,118.613c0,21.333,5.973,36.693,16.213,48.64c4.267,5.12-1.707,7.68-3.413,13.653
		c-0.853,4.267,2.56,15.36,1.707,19.627c-1.707,5.973-6.827,8.533-12.8,5.973c-33.28-14.507-56.32-52.053-56.32-94.72
		c0-69.973,62.293-154.453,180.053-154.453c94.72,0,152.747,68.267,152.747,141.653c0,97.28-50.347,169.813-129.707,169.813
		c-26.453,0-52.053-14.507-60.587-30.72c0,0-14.507,57.173-17.067,68.267c-5.12,18.773-13.653,38.4-23.04,52.907
		c22.187,6.827,43.52,10.24,68.267,10.24c136.533,0,221.867-110.933,221.867-247.467S391.533,8.533,255,8.533"/>
	<path style="fill:#FFA800;" d="M255,8.533L255,8.533c136.533,0,221.867,110.933,221.867,247.467S391.533,503.467,255,503.467l0,0
		c136.533,0,247.467-110.933,247.467-247.467S391.533,8.533,255,8.533"/>
	<path d="M255,512c-24.747,0-48.64-3.413-72.533-10.24c-2.56-0.853-4.267-2.56-5.973-5.12c-0.853-2.56-0.853-5.12,0.853-7.68
		c11.947-18.773,19.627-35.84,23.893-50.347c2.56-11.093,17.067-67.413,17.067-67.413c0.853-3.413,3.413-5.973,7.68-5.973
		c3.413-0.853,6.827,1.707,8.533,4.267c6.827,12.8,28.16,26.453,52.907,26.453c73.387,0,124.587-66.56,124.587-161.28
		c0-65.707-55.467-133.12-148.48-133.12c-69.973,0-168.107,45.227-168.107,145.92c0,43.52,16.213,75.093,45.227,87.04h0.853
		c0,0,0,0,0-0.853c0.853-4.267,3.413-13.653,4.267-18.773v-1.707c0.853-2.56,0.853-2.56,0.853-3.413c0,0,0-0.853-2.56-3.413
		c-11.947-14.507-17.92-32.427-17.92-53.76c0-72.533,56.32-127.147,130.56-127.147c67.413,0,111.787,40.96,111.787,103.253
		c0,80.213-37.547,139.947-87.04,139.947c-15.36,0-29.867-6.827-39.253-17.92c-8.533-11.093-11.947-25.6-8.533-40.107
		c2.56-11.947,6.827-23.893,10.24-34.987c5.973-19.627,11.947-37.547,11.947-50.347c0-6.827-1.707-29.013-24.747-29.013
		c-22.187,0-39.253,24.747-39.253,55.467c0,21.333,6.827,34.987,6.827,34.987c0.853,1.707,0.853,3.413,0.853,5.973
		c0,0-27.307,114.347-31.573,134.827c-3.413,15.36-5.12,33.28-4.267,54.613c0,2.56-1.707,5.973-3.413,7.68
		c-2.56,1.707-5.12,1.707-8.533,0.853C59.587,449.707-1,357.547-1,256c0-70.827,28.16-136.533,79.36-185.173
		c3.413-3.413,8.533-3.413,11.947,0c3.413,3.413,3.413,8.533,0,11.947C42.52,128.853,16.067,190.293,16.067,256
		c0,90.453,51.2,172.373,130.56,213.333c0-17.067,1.707-32.427,5.12-45.227c4.267-17.92,27.307-114.347,31.573-132.267
		c-2.56-5.973-7.68-20.48-7.68-40.107c0-40.96,24.747-72.533,56.32-72.533c24.747,0,41.813,18.773,41.813,46.08
		c0,15.36-5.973,34.987-12.8,55.467c-3.413,11.093-6.827,23.04-9.387,34.133c-2.56,9.387,0,18.773,5.12,25.6
		c5.973,7.68,15.36,11.947,25.6,11.947c40.107,0,69.973-52.907,69.973-122.88c0-52.907-35.84-86.187-94.72-86.187
		c-54.613,0-113.493,38.4-113.493,110.08c0,17.92,4.267,31.573,14.507,42.667c5.973,6.827,7.68,11.947,5.12,21.333v0.853
		c-0.853,5.12-3.413,14.507-5.12,18.773c-1.707,5.12-4.267,9.387-9.387,11.947c-4.267,2.56-9.387,2.56-14.507,0
		c-34.987-14.507-56.32-52.907-56.32-102.4c0-39.253,17.067-79.36,46.933-109.227c23.893-24.747,67.413-53.76,138.24-53.76
		c103.253,0,165.547,76.8,165.547,150.187c0,103.253-59.733,178.347-141.653,178.347c-20.48,0-42.667-8.533-56.32-20.48
		c-4.267,17.92-11.093,44.373-13.653,52.053c-4.267,13.653-10.24,29.013-19.627,45.227c18.773,4.267,37.547,6.827,57.173,6.827
		c131.413,0,238.933-107.52,238.933-238.933c0-132.267-107.52-239.787-238.933-239.787c-42.667,0-84.48,11.093-121.173,33.28
		c-4.267,2.56-9.387,0.853-11.947-3.413c-2.56-4.267-0.853-9.387,3.413-11.947C164.547,11.947,209.773,0,255,0
		c140.8,0,256,115.2,256,256S395.8,512,255,512z"/>
	<path d="M113.347,57.173c0-5.12-3.413-8.533-8.533-8.533c-5.12,0-8.533,3.413-8.533,8.533s3.413,8.533,8.533,8.533
		C109.933,65.707,113.347,62.293,113.347,57.173"/>
</g>
<g>
</g>
<g>
</g>
<g>
</g>
<g>
</g>
<g>
</g>
<g>
</g>
<g>
</g>
<g>
</g>
<g>
</g>
<g>
</g>
<g>
</g>
<g>
</g>
<g>
</g>
<g>
</g>
<g>
</g>
</svg>
