<?xml version="1.0" encoding="iso-8859-1"?>
<!-- Generator: Adobe Illustrator 19.0.0, SVG Export Plug-In . SVG Version: 6.00 Build 0)  -->
<svg version="1.1" id="Layer_1" xmlns="http://www.w3.org/2000/svg" xmlns:xlink="http://www.w3.org/1999/xlink" x="0px" y="0px"
	 viewBox="0 0 512 512" style="enable-background:new 0 0 512 512;" xml:space="preserve">
<g transform="translate(1 1)">
	<path style="fill:#FFFFFF;" d="M167.107,499.053c-0.853-3.413-1.707-9.387-1.707-12.8c0-20.48,17.92-37.547,39.253-37.547
		c0.853,0,2.56,0,3.413,0c-2.56-5.973-4.267-12.8-5.973-18.773c-23.893-7.68-40.96-36.693-40.96-71.68
		c0-30.72,13.653-57.173,33.28-68.267c-10.24-4.267-19.627-10.24-28.16-16.213c-26.453-20.48-40.96-47.787-40.96-76.8
		c0-4.267,0-7.68,0.853-11.947c-10.24-6.827-17.067-20.48-17.067-34.987c0-18.773,11.093-34.133,25.6-39.253
		c-4.267,0-7.68-0.853-11.093-0.853c-23.04,0-40.96,17.92-40.96,40.96c0,14.507,7.68,28.16,19.627,34.987
		c-0.853,3.413-0.853,7.68-0.853,11.947c0,29.013,17.067,56.32,47.787,76.8c10.24,6.827,20.48,11.947,32.427,16.213
		c-23.04,11.093-39.253,37.547-39.253,68.267c0,34.987,20.48,64,47.787,71.68c2.56,6.827,4.267,12.8,6.827,18.773
		c-0.853,0-2.56,0-4.267,0c-24.747,0-46.08,17.067-46.08,37.547c0,3.413,0.853,8.533,1.707,12.8c0.853,2.56,3.413,5.12,6.827,5.12
		h14.507C169.667,504.173,167.107,501.613,167.107,499.053"/>
	<g>
		<path style="fill:#FFE100;" d="M266.093,92.867c-0.853,0-1.707,0-2.56,0c-4.267-1.707-6.827-5.973-5.973-10.24l21.333-71.68
			c2.56-7.68,10.24-11.947,17.92-10.24L357.4,17.773c4.267,1.707,6.827,5.973,5.973,10.24c-1.707,4.267-5.973,6.827-10.24,5.973
			L295.107,16.92l-21.333,69.973C272.92,90.307,269.507,92.867,266.093,92.867z"/>
		<path style="fill:#FFE100;" d="M253.293,84.333c-34.133,0.853-69.12,16.213-93.867,34.133c-5.973-6.827-14.507-10.24-23.04-10.24
			c-19.627,0-34.987,17.92-34.987,40.96c0,14.507,6.827,28.16,17.067,34.987c-0.853,3.413-0.853,7.68-0.853,11.947
			c0,29.013,14.507,56.32,40.96,76.8c8.533,6.827,17.92,11.947,28.16,16.213c-19.627,11.093-33.28,37.547-33.28,68.267
			c0,34.987,17.92,64,40.96,71.68c1.707,6.827,4.267,12.8,5.973,18.773c-0.853,0-2.56,0-3.413,0
			c-21.333,0-39.253,17.067-39.253,37.547c0,3.413,0.853,8.533,1.707,12.8c0.853,2.56,3.413,5.12,5.973,5.12h177.493
			c2.56,0,5.12-1.707,5.973-5.12c0.853-3.413,0-9.387,0-11.947c0-20.48-15.36-37.547-36.693-37.547c-0.853,0-1.707,0-2.56,0
			c2.56-5.973,4.267-12.8,5.973-18.773c23.893-7.68,40.96-36.693,40.96-71.68c0-30.72-13.653-57.173-33.28-68.267
			c10.24-4.267,19.627-10.24,28.16-16.213c26.453-20.48,40.96-47.787,40.96-76.8c0-4.267,0-7.68-0.853-11.947
			c10.24-6.827,17.067-20.48,17.067-34.987c0-22.187-15.36-40.96-34.987-40.96c-8.533,0-17.067,4.267-23.04,10.24
			c-23.893-17.92-57.173-33.28-89.6-34.133h-7.68V84.333z"/>
	</g>
	<g>
		<path style="fill:#FFA800;" d="M432.493,150.893c0-22.187-17.92-40.96-40.96-40.96c-3.413,0-6.827,0.853-10.24,1.707
			c14.507,5.12,25.6,20.48,25.6,39.253c0,14.507-6.827,28.16-17.067,34.987c0.853,3.413,0.853,7.68,0.853,11.947
			c0,29.013-14.507,56.32-40.96,76.8c-8.533,6.827-17.92,11.947-28.16,16.213c19.627,11.093,33.28,37.547,33.28,68.267
			c0,34.987-17.92,64-40.96,71.68c-1.707,6.827-4.267,12.8-5.973,18.773c0.853,0,1.707,0,2.56,0
			c21.333,0,36.693,17.067,36.693,37.547c0,3.413,0.853,8.533,0,11.947c-0.853,2.56-3.413,5.12-5.973,5.12h14.507
			c3.413,0,5.973-1.707,6.827-5.12c0.853-3.413,0-9.387,0-11.947c0-20.48-17.92-37.547-42.667-37.547c-0.853,0-1.707,0-2.56,0
			c2.56-5.973,5.12-12.8,6.827-18.773c27.307-7.68,47.787-36.693,47.787-71.68c0-30.72-16.213-57.173-39.253-68.267
			c11.947-4.267,22.187-10.24,32.427-16.213c30.72-20.48,47.787-47.787,47.787-76.8c0-4.267,0-7.68-0.853-11.947
			C423.96,178.2,432.493,165.4,432.493,150.893"/>
		<path style="fill:#FFA800;" d="M406.893,41.667c0-18.773-15.36-34.133-34.133-34.133s-34.133,15.36-34.133,34.133
			S353.987,75.8,372.76,75.8S406.893,60.44,406.893,41.667"/>
	</g>
	<path style="fill:#FFE100;" d="M389.827,41.667c0-18.773-11.093-34.133-25.6-34.133s-25.6,15.36-25.6,34.133
		S349.72,75.8,364.227,75.8S389.827,60.44,389.827,41.667"/>
	<g>
		<path style="fill:#63D3FD;" d="M227.693,178.2c0-14.507-11.093-25.6-25.6-25.6c-14.507,0-25.6,11.093-25.6,25.6
			c0,14.507,11.093,25.6,25.6,25.6C216.6,203.8,227.693,192.707,227.693,178.2"/>
		<path style="fill:#63D3FD;" d="M330.093,178.2c0-14.507-11.093-25.6-25.6-25.6s-25.6,11.093-25.6,25.6
			c0,14.507,11.093,25.6,25.6,25.6S330.093,192.707,330.093,178.2"/>
	</g>
	<path style="fill:#3DB9F9;" d="M267.8,459.8h-25.6c-23.04-13.653-40.107-56.32-40.107-108.373c0-11.947,0.853-23.893,2.56-34.987
		c15.36,4.267,32.427,6.827,50.347,6.827s34.133-2.56,50.347-6.827c1.707,11.093,2.56,23.04,2.56,34.987
		C307.907,403.48,290.84,446.147,267.8,459.8"/>
	<path style="fill:#63D3FD;" d="M247.32,459.8h-5.973c-22.187-13.653-39.253-56.32-39.253-108.373
		c0-11.947,0.853-23.893,2.56-34.987c15.36,4.267,32.427,6.827,50.347,6.827s14.507-2.56,29.867-6.827
		c1.707,11.093,2.56,23.04,2.56,34.987C287.427,403.48,270.36,446.147,247.32,459.8"/>
	<g>
		<path style="fill:#020202;" d="M202.093,212.333c-18.773,0-34.133-15.36-34.133-34.133s15.36-34.133,34.133-34.133
			s34.133,15.36,34.133,34.133S220.867,212.333,202.093,212.333z M202.093,161.133c-9.387,0-17.067,7.68-17.067,17.067
			s7.68,17.067,17.067,17.067s17.067-7.68,17.067-17.067S211.48,161.133,202.093,161.133z"/>
		<path style="fill:#020202;" d="M304.493,212.333c-18.773,0-34.133-15.36-34.133-34.133s15.36-34.133,34.133-34.133
			s34.133,15.36,34.133,34.133S323.267,212.333,304.493,212.333z M304.493,161.133c-9.387,0-17.067,7.68-17.067,17.067
			s7.68,17.067,17.067,17.067s17.067-7.68,17.067-17.067S313.88,161.133,304.493,161.133z"/>
		<path style="fill:#020202;" d="M253.293,263.533c-23.04,0-45.227-7.68-57.173-19.627c-3.413-3.413-3.413-8.533,0-11.947
			s8.533-3.413,11.947,0c6.827,6.827,22.187,14.507,45.227,14.507s38.4-7.68,45.227-14.507c3.413-3.413,8.533-3.413,11.947,0
			s3.413,8.533,0,11.947C298.52,255.853,276.333,263.533,253.293,263.533z"/>
		<path style="fill:#020202;" d="M357.4,511H150.893c-6.827,0-12.8-4.267-14.507-10.24c-1.707-5.12-2.56-11.947-2.56-15.36
			c0-23.04,19.627-41.813,46.08-46.08c-0.853-1.707-0.853-2.56-1.707-4.267c-29.867-10.24-50.347-41.813-50.347-78.507
			c0-27.307,11.093-51.2,29.867-66.56c-6.827-3.413-12.8-6.827-18.773-11.093c-33.28-22.187-52.053-51.2-52.053-83.627
			c0-2.56,0-5.12,0-7.68c-11.947-9.387-19.627-23.893-19.627-39.253c0-27.307,22.187-49.493,49.493-49.493
			c10.24,0,19.627,2.56,27.307,8.533c33.28-18.773,73.387-30.72,109.227-31.573l0,0h8.533
			c34.133,1.707,72.533,13.653,104.107,32.427c7.68-5.12,17.92-8.533,27.307-8.533c27.307,0,49.493,22.187,49.493,49.493
			c0,15.36-7.68,29.867-19.627,39.253c0,2.56,0,5.12,0,7.68c0,32.427-18.773,61.44-52.053,83.627
			c-5.973,4.267-11.947,7.68-18.773,11.093c17.92,15.36,29.867,40.107,29.867,66.56c0,36.693-20.48,68.267-50.347,78.507
			c-0.853,1.707-0.853,2.56-1.707,4.267c23.893,4.267,41.813,22.187,41.813,45.227c0,0.853,0,1.707,0,2.56
			c0,3.413,0.853,8.533-0.853,11.947C370.2,506.733,364.227,511,357.4,511z M151.747,493.933h203.947c0-1.707,0-3.413,0-4.267
			c0-1.707,0-2.56,0-4.267c0-17.067-14.507-29.013-34.133-29.013c-0.853,0-1.707,0-2.56,0c-2.56,0-5.973-0.853-7.68-3.413
			c-1.707-2.56-1.707-5.973-0.853-8.533c2.56-5.973,5.12-11.947,6.827-17.92c0.853-2.56,3.413-5.12,5.973-5.973
			c23.893-6.827,41.813-33.28,41.813-63.147c0-26.453-13.653-51.2-34.133-60.587c-3.413-1.707-5.12-4.267-5.12-7.68
			c0-3.413,2.56-6.827,5.12-7.68c11.093-4.267,21.333-9.387,30.72-15.36c28.16-18.773,44.373-43.52,44.373-69.12
			c0-3.413,0-6.827-0.853-10.24c-0.853-3.413,0.853-6.827,4.267-8.533c9.387-5.973,15.36-16.213,15.36-27.307
			c0-17.92-14.507-32.427-32.427-32.427c-7.68,0-15.36,2.56-21.333,8.533c-2.56,2.56-6.827,2.56-10.24,0.853
			C330.947,108.227,293.4,96.28,260.12,94.573h-8.533c-34.133,0.853-73.387,12.8-104.96,33.28c-3.413,1.707-7.68,1.707-10.24-0.853
			c-5.973-5.12-13.653-8.533-21.333-8.533c-17.92,0-32.427,14.507-32.427,32.427c0,11.093,5.973,22.187,15.36,27.307
			c3.413,1.707,4.267,5.12,4.267,8.533c-0.853,3.413-0.853,6.827-0.853,10.24c0,26.453,15.36,50.347,44.373,69.12
			c9.387,5.973,19.627,11.093,30.72,15.36c3.413,0.853,5.12,4.267,5.12,7.68c0,3.413-1.707,6.827-5.12,7.68
			c-20.48,9.387-34.133,34.133-34.133,60.587c0,29.867,17.92,57.173,41.813,63.147c2.56,0.853,5.12,2.56,5.973,5.973
			c1.707,5.973,4.267,12.8,6.827,18.773c0.853,2.56,0.853,5.973-0.853,8.533s-4.267,3.413-7.68,3.413c-0.853,0-2.56,0-3.413,0
			c-17.067-0.853-34.133,11.947-34.133,28.16C150.893,487.107,151.747,491.373,151.747,493.933z"/>
		<path style="fill:#020202;" d="M253.293,92.867c-0.853,0-1.707,0-2.56,0c-4.267-1.707-6.827-5.973-5.973-10.24l21.333-71.68
			c2.56-7.68,10.24-11.947,17.92-10.24L344.6,17.773c4.267,1.707,6.827,5.973,5.973,10.24c-1.707,4.267-5.973,6.827-10.24,5.973
			L282.307,16.92l-20.48,69.973C260.12,90.307,256.707,92.867,253.293,92.867z"/>
		<path style="fill:#020202;" d="M372.76,84.333c-23.893,0-42.667-18.773-42.667-42.667S348.867-1,372.76-1
			c23.893,0,42.667,18.773,42.667,42.667S396.653,84.333,372.76,84.333z M372.76,16.067c-14.507,0-25.6,11.093-25.6,25.6
			s11.093,25.6,25.6,25.6c14.507,0,25.6-11.093,25.6-25.6S387.267,16.067,372.76,16.067z"/>
		<path style="fill:#020202;" d="M267.8,468.333h-25.6c-1.707,0-2.56,0-4.267-0.853c-26.453-15.36-44.373-61.44-44.373-115.2
			c0-11.947,0.853-24.747,2.56-35.84c0-2.56,1.707-4.267,4.267-5.973c1.707-1.707,4.267-1.707,6.827-0.853
			c29.867,9.387,64.853,9.387,95.573,0c2.56-0.853,5.12,0,6.827,0.853c1.707,1.707,3.413,3.413,4.267,5.973
			c1.707,11.947,2.56,23.893,2.56,35.84c0,53.76-17.92,100.693-44.373,115.2C271.213,468.333,269.507,468.333,267.8,468.333z
			 M244.76,451.267h21.333c19.627-12.8,33.28-54.613,33.28-99.84c0-8.533-0.853-16.213-1.707-23.893
			c-27.307,6.827-58.027,6.827-85.333,0c-0.853,7.68-1.707,16.213-1.707,23.893C211.48,396.653,225.133,438.467,244.76,451.267z"/>
	</g>
</g>
<g>
</g>
<g>
</g>
<g>
</g>
<g>
</g>
<g>
</g>
<g>
</g>
<g>
</g>
<g>
</g>
<g>
</g>
<g>
</g>
<g>
</g>
<g>
</g>
<g>
</g>
<g>
</g>
<g>
</g>
</svg>
