<?xml version="1.0" encoding="iso-8859-1"?>
<!-- Generator: Adobe Illustrator 19.0.0, SVG Export Plug-In . SVG Version: 6.00 Build 0)  -->
<svg version="1.1" id="Layer_1" xmlns="http://www.w3.org/2000/svg" xmlns:xlink="http://www.w3.org/1999/xlink" x="0px" y="0px"
	 viewBox="0 0 512.853 512.853" style="enable-background:new 0 0 512.853 512.853;" xml:space="preserve">
<g transform="translate(1 1)">
	<path style="fill:#FFA800;" d="M487.107,301.507c2.56-14.507,4.267-29.867,4.267-45.227c0-128.853-104.96-233.813-234.667-233.813
		l0,0c116.053,0,210.773,104.96,210.773,234.667c0,15.36-1.707,30.72-4.267,45.227c10.24,20.48,14.507,43.52,14.507,68.267
		c0,73.387-50.347,130.56-116.053,132.267c2.56,0,5.973,0,8.533,0c74.24,0,132.267-58.027,132.267-133.12
		C502.467,345.027,498.2,321.987,487.107,301.507"/>
	<path style="fill:#FFE100;" d="M462.36,301.507c2.56-14.507,4.267-29.867,4.267-45.227c0-129.707-63.147-234.667-210.773-234.667
		c-13.653,0-27.307,1.707-40.107,4.267c-17.92-11.093-38.4-17.92-61.44-17.92c-66.56,0-121.173,60.587-121.173,135.68
		c0,24.747,5.973,48.64,16.213,68.267c-2.56,14.507-4.267,29.867-4.267,45.227c0,129.707,93.867,234.667,210.773,234.667
		c13.653,0,27.307-1.707,40.107-4.267c17.92,11.947,39.253,15.36,61.44,15.36c67.413,0,119.467-58.027,119.467-133.12
		C476.867,345.027,473.453,321.987,462.36,301.507"/>
	<path style="fill:#FFFFFF;" d="M45.933,257.133c0-15.36,1.707-30.72,4.267-45.227c-10.24-20.48-16.213-43.52-16.213-68.267
		C33.133,70.253,85.187,10.52,150.04,7.96c-2.56,0-5.12,0-6.827,0C68.12,7.96,7.533,68.547,7.533,143.64
		c0,24.747,6.827,48.64,18.773,68.267c-2.56,14.507-4.267,29.867-4.267,45.227C22.04,385.987,126.147,490.947,255,491.8
		C138.947,490.947,45.933,385.987,45.933,257.133"/>
	<g>
		<path style="fill:#FFE100;" d="M255,22.467c-13.653,0-27.307,1.707-40.107,3.413c0,0,0.853,0,0.853,0.853
			C228.547,23.32,241.347,22.467,255,22.467"/>
		<path style="fill:#FFE100;" d="M296.813,487.533c-12.8,2.56-26.453,4.267-40.107,4.267l0,0c14.507,0,28.16-1.707,40.96-3.413
			C297.667,487.533,296.813,487.533,296.813,487.533"/>
	</g>
	<path style="fill:#63D3FD;" d="M251.587,418.413c-83.627,0-110.933-31.573-124.587-70.827c-12.8-39.253,1.707-50.347,10.24-51.2
		s27.307,1.707,33.28,17.92c5.973,17.067,23.893,50.347,64,54.613s72.533-14.507,80.213-33.28
		c9.387-22.187,13.653-42.667-69.973-54.613C183.32,272.493,127,245.187,127,182.893s62.293-86.187,129.707-86.187
		s88.747,38.4,96.427,52.907c9.387,18.773,17.92,49.493-4.267,54.613c-23.04,5.973-34.133-6.827-51.2-38.4
		c-17.067-32.427-79.36-23.893-100.693-5.973c-20.48,18.773-15.36,45.227,71.68,61.44c86.187,17.067,105.813,47.787,105.813,97.28
		C374.467,366.36,334.36,418.413,251.587,418.413"/>
	<g>
		<path style="fill:#3DB9F9;" d="M352.28,147.907c9.387,18.773,17.92,49.493-4.267,54.613c-2.56,0.853-4.267,0.853-5.973,0.853
			c4.267,0,7.68,0,12.8-0.853c22.187-5.12,25.6-35.84,16.213-54.613C363.373,133.4,329.24,95,261.827,95c-0.853,0-2.56,0-3.413,0
			C324.12,95.853,345.453,133.4,352.28,147.907"/>
		<path style="fill:#3DB9F9;" d="M274.627,220.44c-86.187-17.067-92.16-43.52-71.68-61.44c10.24-8.533,29.867-15.36,49.493-16.213
			c-21.333-0.853-44.373,5.973-55.467,16.213c-20.48,18.773-15.36,45.227,71.68,61.44s105.813,47.787,105.813,97.28
			c0,47.787-38.4,98.987-119.467,99.84c1.707,0,4.267,0,5.973,0c83.627,0,132.267-51.2,132.267-99.84
			C393.24,268.227,360.813,237.507,274.627,220.44"/>
	</g>
	<path d="M369.347,511.427c-28.16,0-51.2-5.12-69.973-15.36c-14.507,2.56-29.013,4.267-43.52,4.267
		c-133.973,0-243.2-109.227-243.2-243.2c0-14.507,1.707-29.013,4.267-43.52C4.973,192.28-1,167.533-1,143.64
		C-1,64.28,63.853-0.573,143.213-0.573c24.747,0,48.64,5.973,69.973,17.92c43.52-7.68,89.6-3.413,130.56,11.947
		c4.267,1.707,6.827,6.827,5.12,11.093c-1.707,4.267-6.827,6.827-11.093,5.12c-40.107-15.36-83.627-18.773-124.587-11.093
		c-1.707,0-4.267,0-5.973-0.853c-19.627-11.093-41.813-17.067-64-17.067c-69.973,0-127.147,57.173-127.147,127.147
		c0,22.187,5.973,44.373,17.067,64c0.853,1.707,1.707,4.267,0.853,5.973c-2.56,14.507-4.267,29.013-4.267,43.52
		c0,124.587,101.547,226.133,226.133,226.133c14.507,0,29.013-1.707,43.52-4.267c1.707,0,4.267,0,5.973,0.853
		c17.067,9.387,37.547,14.507,64,14.507c69.973,0,124.587-54.613,124.587-124.587c0-26.453-5.12-46.933-14.507-64
		c-0.853-1.707-1.707-4.267-0.853-5.973c2.56-14.507,4.267-29.013,4.267-43.52c0-73.387-35.84-142.507-95.573-185.173
		c-4.267-2.56-5.12-7.68-1.707-11.947c3.413-4.267,7.68-5.12,11.947-1.707C462.36,102.68,500.76,177.773,500.76,256.28
		c0,14.507-1.707,29.013-4.267,43.52c10.24,18.773,15.36,41.813,15.36,69.973C511,449.133,448.707,511.427,369.347,511.427z"/>
	<path d="M374.467,50.627c0-5.12-3.413-8.533-8.533-8.533s-8.533,3.413-8.533,8.533s3.413,8.533,8.533,8.533
		S374.467,55.747,374.467,50.627"/>
	<path d="M260.973,426.947c-104.96,0-136.533-47.787-145.92-76.8c-7.68-22.187-2.56-36.693,2.56-44.373
		c8.533-12.8,22.187-17.067,28.16-17.92c11.947-0.853,34.987,2.56,41.813,23.893c2.56,7.68,16.213,44.373,57.173,48.64
		c35.84,3.413,58.88-11.947,65.707-28.16c1.707-5.12,1.707-10.24-0.853-15.36c-4.267-7.68-17.92-21.333-60.587-27.307
		c-84.48-11.947-133.12-51.2-133.12-106.667c0-69.973,78.507-94.72,146.773-94.72c71.68,0,108.373,41.813,116.907,58.027
		c7.68,14.507,7.68,33.28,1.707,46.933c-5.12,10.24-12.8,17.067-23.04,19.627c-31.573,7.68-46.933-14.507-61.44-42.667
		c-5.973-10.24-17.92-14.507-26.453-16.213c-23.04-4.267-49.493,3.413-60.587,12.8c-4.267,3.413-8.533,8.533-6.827,14.507
		c0.853,4.267,10.24,20.48,74.24,33.28c87.04,17.067,125.44,49.493,125.44,105.813C401.773,371.48,348.867,426.947,260.973,426.947z
		 M150.04,304.92c-1.707,0-2.56,0-2.56,0c-3.413,0-11.093,3.413-16.213,10.24c-5.12,6.827-5.12,17.067-0.853,29.867
		c13.653,41.813,59.733,64.853,129.707,64.853c77.653,0,123.733-46.933,123.733-91.307c0-33.28-13.653-69.12-111.787-88.747
		c-53.76-10.24-81.92-24.747-87.893-45.227c-2.56-11.093,1.707-22.187,11.947-31.573c16.213-14.507,48.64-21.333,75.093-17.067
		c17.92,3.413,31.573,11.947,38.4,24.747c17.92,34.133,27.307,37.547,42.667,34.133c5.12-0.853,9.387-4.267,11.947-10.24
		c4.267-9.387,3.413-23.04-0.853-32.427c-6.827-13.653-38.4-48.64-101.547-48.64c-59.733,0-129.707,20.48-129.707,77.653
		c0,63.147,74.24,82.773,118.613,89.6c46.933,6.827,65.707,23.04,72.533,35.84c5.12,9.387,5.973,20.48,1.707,30.72
		c-9.387,22.187-38.4,43.52-83.627,39.253c-51.2-5.12-68.267-51.2-71.68-60.587C167.96,305.773,155.16,304.92,150.04,304.92z"/>
</g>
<g>
</g>
<g>
</g>
<g>
</g>
<g>
</g>
<g>
</g>
<g>
</g>
<g>
</g>
<g>
</g>
<g>
</g>
<g>
</g>
<g>
</g>
<g>
</g>
<g>
</g>
<g>
</g>
<g>
</g>
</svg>
