<?xml version="1.0" encoding="iso-8859-1"?>
<!-- Generator: Adobe Illustrator 19.0.0, SVG Export Plug-In . SVG Version: 6.00 Build 0)  -->
<svg version="1.1" id="Layer_1" xmlns="http://www.w3.org/2000/svg" xmlns:xlink="http://www.w3.org/1999/xlink" x="0px" y="0px"
	 viewBox="0 0 512 512" style="enable-background:new 0 0 512 512;" xml:space="preserve">
<g transform="translate(1 1)">
	<path style="fill:#FFFFFF;" d="M24.6,361.667L24.6,361.667c-9.387,0-17.067-7.68-17.067-17.067v-34.133
		c0-9.387,7.68-17.067,17.067-17.067s17.067,7.68,17.067,17.067V344.6C41.667,353.987,33.987,361.667,24.6,361.667"/>
	<g>
		<path style="fill:#FFE100;" d="M41.667,361.667L41.667,361.667c-9.387,0-17.067-7.68-17.067-17.067v-34.133
			c0-9.387,7.68-17.067,17.067-17.067"/>
		<path style="fill:#FFE100;" d="M92.867,361.667L92.867,361.667c-9.387,0-17.067-7.68-17.067-17.067v-68.267
			c0-9.387,7.68-17.067,17.067-17.067s17.067,7.68,17.067,17.067V344.6C109.933,353.987,102.253,361.667,92.867,361.667"/>
		<path style="fill:#FFE100;" d="M161.133,361.667L161.133,361.667c-9.387,0-17.067-7.68-17.067-17.067V242.2
			c0-9.387,7.68-17.067,17.067-17.067s17.067,7.68,17.067,17.067v102.4C178.2,353.987,170.52,361.667,161.133,361.667"/>
		<path style="fill:#FFE100;" d="M229.4,361.667L229.4,361.667c-9.387,0-17.067-9.387-17.067-21.333v-128
			c0-11.947,7.68-21.333,17.067-21.333s17.067,9.387,17.067,21.333v128C246.467,352.28,238.787,361.667,229.4,361.667"/>
		<path style="fill:#FFE100;" d="M417.133,361.667c33.28,0,59.733-26.453,59.733-59.733S450.413,242.2,417.133,242.2
			c-6.827,0,12.8,0.853,5.973,3.413c-10.24-55.467-58.88-97.28-116.907-97.28c-8.533,0-17.067,0.853-25.6,2.56v210.773h98.987
			H417.133z"/>
	</g>
	<g>
		<path style="fill:#FFA800;" d="M423.107,245.613L423.107,245.613c0-0.853,0-0.853,0-1.707l0,0
			C423.107,243.907,423.107,244.76,423.107,245.613"/>
		<path style="fill:#FFA800;" d="M442.733,242.2c-4.267,0-8.533,0.853-12.8,1.707c26.453,5.973,46.933,29.867,46.933,58.027
			c0,33.28-26.453,59.733-59.733,59.733h25.6c33.28,0,59.733-26.453,59.733-59.733S476.013,242.2,442.733,242.2"/>
	</g>
	<path d="M24.6,370.2C10.093,370.2-1,359.107-1,344.6v-34.133c0-14.507,11.093-25.6,25.6-25.6s25.6,11.093,25.6,25.6V344.6
		C50.2,359.107,39.107,370.2,24.6,370.2z M24.6,301.933c-5.12,0-8.533,3.413-8.533,8.533V344.6c0,5.12,3.413,8.533,8.533,8.533
		s8.533-3.413,8.533-8.533v-34.133C33.133,305.347,29.72,301.933,24.6,301.933z"/>
	<path d="M92.867,370.2c-14.507,0-25.6-11.093-25.6-25.6v-68.267c0-14.507,11.093-25.6,25.6-25.6s25.6,11.093,25.6,25.6V344.6
		C118.467,359.107,107.373,370.2,92.867,370.2z M92.867,267.8c-5.12,0-8.533,3.413-8.533,8.533V344.6
		c0,5.12,3.413,8.533,8.533,8.533s8.533-3.413,8.533-8.533v-68.267C101.4,271.213,97.987,267.8,92.867,267.8z"/>
	<path d="M161.133,370.2c-14.507,0-25.6-11.093-25.6-25.6V242.2c0-14.507,11.093-25.6,25.6-25.6c14.507,0,25.6,11.093,25.6,25.6
		v102.4C186.733,359.107,175.64,370.2,161.133,370.2z M161.133,233.667c-5.12,0-8.533,3.413-8.533,8.533v102.4
		c0,5.12,3.413,8.533,8.533,8.533c5.12,0,8.533-3.413,8.533-8.533V242.2C169.667,237.08,166.253,233.667,161.133,233.667z"/>
	<path d="M229.4,370.2c-14.507,0-25.6-13.653-25.6-29.867v-128c0-16.213,11.093-29.867,25.6-29.867
		c14.507,0,25.6,13.653,25.6,29.867v128C255,356.547,243.907,370.2,229.4,370.2z M229.4,199.533c-4.267,0-8.533,5.12-8.533,12.8v128
		c0,7.68,4.267,12.8,8.533,12.8s8.533-5.12,8.533-12.8v-128C237.933,204.653,233.667,199.533,229.4,199.533z"/>
	<path d="M442.733,370.2h-76.8c-5.12,0-8.533-3.413-8.533-8.533s3.413-8.533,8.533-8.533h76.8c28.16,0,51.2-23.04,51.2-51.2
		s-23.04-51.2-51.2-51.2c-5.12,0-11.093,0.853-16.213,2.56c-2.56,0.853-5.12,0.853-6.827-0.853
		c-1.707-0.853-3.413-3.413-4.267-5.973c-10.24-52.053-56.32-89.6-109.227-89.6c-5.973,0-11.093,0.853-17.067,1.707v194.56h8.533
		c5.12,0,8.533,3.413,8.533,8.533s-3.413,8.533-8.533,8.533H280.6c-5.12,0-8.533-3.413-8.533-8.533V150.893
		c0-4.267,2.56-7.68,6.827-8.533c8.533-1.707,17.92-2.56,27.307-2.56c58.027,0,109.227,39.253,123.733,94.72
		c4.267-0.853,8.533-0.853,12.8-0.853c37.547,0,68.267,30.72,68.267,68.267S480.28,370.2,442.733,370.2z"/>
	<path d="M340.333,361.667c0-5.12-3.413-8.533-8.533-8.533s-8.533,3.413-8.533,8.533s3.413,8.533,8.533,8.533
		S340.333,366.787,340.333,361.667"/>
</g>
<g>
</g>
<g>
</g>
<g>
</g>
<g>
</g>
<g>
</g>
<g>
</g>
<g>
</g>
<g>
</g>
<g>
</g>
<g>
</g>
<g>
</g>
<g>
</g>
<g>
</g>
<g>
</g>
<g>
</g>
</svg>
