<?xml version="1.0" encoding="iso-8859-1"?>
<!-- Generator: Adobe Illustrator 19.0.0, SVG Export Plug-In . SVG Version: 6.00 Build 0)  -->
<svg version="1.1" id="Layer_1" xmlns="http://www.w3.org/2000/svg" xmlns:xlink="http://www.w3.org/1999/xlink" x="0px" y="0px"
	 viewBox="0 0 512 512" style="enable-background:new 0 0 512 512;" xml:space="preserve">
<g transform="translate(1 1)">
	<path style="fill:#FFFFFF;" d="M257.648,149.069c-15.007,0-20.303,10.593-20.303,24.717v157.131
		c-0.883,60.028-53.848,109.462-114.759,109.462c-61.793,0-114.759-50.317-114.759-111.228V255h79.448v73.269
		c0,14.124,15.89,23.835,30.897,23.835s30.897-8.828,30.897-23.835V169.372C150.834,111.11,194.972,69.621,255,69.621
		c60.91,0,104.165,41.49,105.931,100.634v31.779l-44.138,26.483l-35.31-26.483v-28.248
		C281.483,159.662,272.655,149.069,257.648,149.069"/>
	<path style="fill:#FFE100;" d="M257.648,149.069c-15.007,0-20.303,10.593-20.303,24.717v157.131
		c-0.883,60.028-45.021,109.462-105.931,109.462c-61.793,0-97.103-50.317-97.103-111.228V255h52.966v73.269
		c0,14.124,20.303,23.835,35.31,23.835s26.483-8.828,26.483-23.835V169.372c1.766-58.262,54.731-99.752,114.759-99.752
		c60.91,0,95.338,41.49,97.103,100.634v31.779l-44.138,26.483l-35.31-26.483v-28.248
		C281.483,159.662,272.655,149.069,257.648,149.069"/>
	<path style="fill:#FFA800;" d="M396.241,440.379c-61.793,0-114.759-50.317-114.759-110.345V255l35.31,26.483L360.931,255v79.448
		c0,14.124,15.89,26.483,30.897,26.483c15.007,0,30.897-12.359,30.897-26.483V255h79.448v74.152
		C502.172,390.062,458.034,440.379,396.241,440.379"/>
	<path style="fill:#FFE100;" d="M396.241,440.379c-61.793,0-114.759-50.317-114.759-110.345V255l35.31,26.483L360.931,255v79.448
		c0,14.124,15.89,26.483,30.897,26.483c15.007,0,30.897-12.359,30.897-26.483V255h52.966v74.152
		C475.69,390.062,458.034,440.379,396.241,440.379"/>
	<path style="fill:#020202;" d="M396.241,449.207c-66.207,0-123.586-54.731-123.586-119.172v-92.69l45.021,33.545l52.083-31.779
		v95.338c0,8.828,11.476,17.655,22.069,17.655s22.069-8.828,22.069-17.655v-88.276H511v82.979
		C511,396.241,460.683,449.207,396.241,449.207z M290.31,272.655v57.379c0,54.731,48.552,101.517,105.931,101.517
		c55.614,0,97.103-44.138,97.103-102.4v-65.324h-61.793v70.621c0,20.303-21.186,35.31-39.724,35.31
		c-18.538,0-39.724-15.007-39.724-35.31V270.89l-36.193,21.186L290.31,272.655z M122.586,449.207
		C55.497,449.207-1,394.476-1,329.152v-82.979h97.103v82.097c0,7.945,11.476,15.007,22.069,15.007s22.069-6.179,22.069-15.007
		V169.372C142.89,105.814,189.676,60.793,255,60.793s112.993,45.021,114.759,109.462v37.076L315.91,239.11l-43.255-32.662v-32.662
		c0-3.531-0.883-15.89-15.007-15.89c-3.531,0-11.476,0-11.476,15.89v157.131C245.29,395.359,188.793,449.207,122.586,449.207z
		 M16.655,263.828v65.324c0,55.614,48.552,102.4,105.931,102.4c56.497,0,105.048-45.903,105.931-100.634V173.786
		c0-20.303,11.476-33.545,29.131-33.545c19.421,0,32.662,14.124,32.662,33.545v23.834l27.366,20.303l34.428-21.186v-26.483
		c-1.766-53.848-41.49-91.807-97.103-91.807s-95.338,37.959-97.103,91.807v158.897c0,20.303-20.303,32.662-39.724,32.662
		c-19.421-0.883-39.724-13.241-39.724-33.545v-64.441H16.655z"/>
</g>
<g>
</g>
<g>
</g>
<g>
</g>
<g>
</g>
<g>
</g>
<g>
</g>
<g>
</g>
<g>
</g>
<g>
</g>
<g>
</g>
<g>
</g>
<g>
</g>
<g>
</g>
<g>
</g>
<g>
</g>
</svg>
