<?xml version="1.0" encoding="iso-8859-1"?>
<!-- Generator: Adobe Illustrator 19.0.0, SVG Export Plug-In . SVG Version: 6.00 Build 0)  -->
<svg version="1.1" id="Layer_1" xmlns="http://www.w3.org/2000/svg" xmlns:xlink="http://www.w3.org/1999/xlink" x="0px" y="0px"
	 viewBox="0 0 511.147 511.147" style="enable-background:new 0 0 511.147 511.147;" xml:space="preserve">
<g transform="translate(1 1)">
	<g>
		<path style="fill:#FFE100;" d="M416.707,399.213v77.653c0,0,0,0-0.853,0c-9.387,4.267-14.507,5.12-23.893,8.533
			c-23.04,8.533-45.227,14.507-69.12,15.36c-2.56,0-4.267,0-6.827,0c-5.12,0-14.507,0-15.36,0c-7.68,0-15.36-0.853-22.187-1.707
			c-11.947-1.707-23.893-4.267-35.84-8.533c-18.773-6.827-35.84-17.92-49.493-32.427C182.893,447,173.507,434.2,170.947,418.84
			c-0.853-11.093-1.707-22.187-1.707-34.133c0-58.027,0-115.2,0-173.227h-51.2v-72.533c5.973-2.56,11.947-4.267,17.067-6.827
			c29.867-13.653,52.053-36.693,66.56-66.56c6.827-14.507,11.093-30.72,13.653-46.933c0.853-4.267,0.853-7.68,1.707-11.947h71.68
			v119.467H399.64v93.867H288.707c0,0,0,126.293,0,130.56c0,10.24,0.853,21.333,2.56,31.573c1.707,11.093,5.973,20.48,15.36,27.307
			c9.387,5.973,19.627,9.387,30.72,11.093c11.093,0.853,21.333,0,32.427-1.707C387.693,414.573,400.493,409.453,416.707,399.213"/>
		<path style="fill:#FFE100;" d="M399.64,399.213v77.653c0,0,0,0-0.853,0c-9.387,4.267-14.507,5.12-23.893,8.533
			c-23.04,8.533-45.227,14.507-69.12,15.36c-2.56,0-4.267,0-6.827,0c-5.12,0-14.507,0-15.36,0c-7.68,0-15.36-0.853-22.187-1.707
			c-11.947-1.707-23.893-4.267-35.84-8.533c-17.92-6.827-35.84-17.92-49.493-32.427C165.827,447,156.44,434.2,153.88,418.84
			c-0.853-11.093-1.707-22.187-1.707-34.133c0-58.027,0-115.2,0-173.227h-51.2v-72.533c5.973-2.56,11.947-4.267,17.067-6.827
			c29.867-13.653,52.053-36.693,66.56-66.56c6.827-14.507,11.093-30.72,13.653-46.933c0.853-4.267,0.853-7.68,1.707-11.947h71.68
			v128h110.933v76.8H271.64c0,0,0,134.827,0,139.093c0,10.24,0.853,21.333,2.56,31.573c1.707,11.093,5.973,20.48,15.36,27.307
			c9.387,5.973,19.627,9.387,30.72,11.093c11.093,0.853,21.333,0,32.427-1.707C370.627,414.573,383.427,409.453,399.64,399.213"/>
	</g>
	<polygon style="fill:#FFA800;" points="356.973,211.48 382.573,211.48 382.573,134.68 356.973,134.68 	"/>
	<polygon style="fill:#FFFFFF;" points="100.973,211.48 126.573,211.48 126.573,134.68 100.973,134.68 	"/>
	<path style="fill:#FFA800;" d="M399.64,484.547h-25.6v-64c0-11.947,9.387-21.333,21.333-21.333h4.267V484.547z"/>
	<path d="M298.947,510.147c-5.12,0-14.507,0-15.36,0c-7.68,0-15.36-0.853-23.04-1.707c-13.653-1.707-25.6-5.12-37.547-9.387
		c-19.627-7.68-38.4-19.627-52.053-34.987c-13.653-14.507-21.333-29.013-23.893-43.52c-2.56-10.24-3.413-22.187-3.413-35.84
		c0-46.08,0-91.307,0-136.533v-28.16h-42.667c-5.12,0-8.533-3.413-8.533-8.533v-72.533c0-3.413,2.56-6.827,5.12-7.68l5.12-1.707
		c4.267-1.707,7.68-2.56,11.947-5.12c28.16-12.8,49.493-34.133,62.293-62.293c5.973-11.947,9.387-26.453,12.8-44.373
		c0.853-2.56,0.853-5.12,0.853-7.68l0.853-3.413C192.28,2.413,195.693-1,199.96-1h71.68c5.12,0,8.533,3.413,8.533,8.533V127h102.4
		c5.12,0,8.533,3.413,8.533,8.533v76.8c0,5.12-3.413,8.533-8.533,8.533h-102.4v25.6c0,5.12-3.413,8.533-8.533,8.533l0,0
		c-5.12,0-8.533-3.413-8.533-8.533v-34.133c0-2.56,0.853-4.267,2.56-5.973c1.707-1.707,3.413-2.56,5.973-2.56h102.4v-59.733h-102.4
		c-5.12,0-8.533-3.413-8.533-8.533V16.067H207.64c0,1.707-0.853,3.413-0.853,4.267c-3.413,19.627-7.68,34.987-13.653,48.64
		c-15.36,31.573-39.253,55.467-70.827,69.973c-4.267,2.56-8.533,4.267-12.8,5.12v58.88h42.667c5.12,0,8.533,3.413,8.533,8.533
		v36.693c0,45.227,0,90.453,0,136.533c0,12.8,0.853,23.04,2.56,33.28c1.707,11.093,8.533,22.187,19.627,34.987
		c11.947,12.8,28.16,23.893,46.08,29.867c10.24,4.267,21.333,6.827,34.133,8.533c6.827,0.853,14.507,1.707,21.333,1.707
		c0.853,0,10.24,0,14.507,0h5.973c21.333-0.853,41.813-5.12,66.56-15.36c4.267-1.707,7.68-2.56,10.24-3.413
		c2.56-0.853,5.973-1.707,8.533-2.56v-57.173c-12.8,6.827-23.893,9.387-37.547,11.947c-11.947,2.56-23.893,3.413-34.987,1.707
		c-12.8-1.707-23.893-5.12-34.133-11.947c-10.24-6.827-16.213-17.92-18.773-33.28c-1.707-11.093-2.56-22.187-2.56-32.427
		c0-2.56,0-5.973,0-37.547c0-5.12,3.413-8.533,8.533-8.533l0,0c5.12,0,8.533,3.413,8.533,8.533c0,30.72,0,34.987,0,36.693
		c0,9.387,0.853,19.627,2.56,29.867c1.707,10.24,5.12,17.067,11.093,21.333c7.68,5.12,17.067,8.533,26.453,9.387
		c9.387,0.853,18.773,0.853,29.867-1.707c18.773-3.413,30.72-8.533,44.373-17.92c2.56-1.707,5.973-1.707,8.533,0
		c2.56,1.707,4.267,4.267,4.267,7.68v77.653c0,3.413-1.707,6.827-5.12,7.68c-5.973,2.56-11.093,4.267-15.36,5.973
		c-2.56,0.853-5.973,1.707-9.387,3.413c-26.453,10.24-49.493,15.36-71.68,16.213L298.947,510.147
		C299.8,510.147,298.947,510.147,298.947,510.147z"/>
	<path d="M280.173,279.747c0-5.12-3.413-8.533-8.533-8.533s-8.533,3.413-8.533,8.533s3.413,8.533,8.533,8.533
		S280.173,284.867,280.173,279.747"/>
</g>
<g>
</g>
<g>
</g>
<g>
</g>
<g>
</g>
<g>
</g>
<g>
</g>
<g>
</g>
<g>
</g>
<g>
</g>
<g>
</g>
<g>
</g>
<g>
</g>
<g>
</g>
<g>
</g>
<g>
</g>
</svg>
