<?xml version="1.0" encoding="iso-8859-1"?>
<!-- Generator: Adobe Illustrator 19.0.0, SVG Export Plug-In . SVG Version: 6.00 Build 0)  -->
<svg version="1.1" id="Layer_1" xmlns="http://www.w3.org/2000/svg" xmlns:xlink="http://www.w3.org/1999/xlink" x="0px" y="0px"
	 viewBox="0 0 512 512" style="enable-background:new 0 0 512 512;" xml:space="preserve">
<g transform="translate(1 1)">
	<path style="fill:#FFE100;" d="M507.535,413.72c0-7.68-2.56-13.653-7.68-19.627c-5.12-5.973-40.107-34.133-57.173-45.227
		c-12.8-8.533-32.427-20.48-40.96-24.747c-11.947-5.973-23.893-6.827-34.987-3.413c-2.56,0.853-4.267,1.707-5.973,2.56
		c-5.12,2.56-9.387,7.68-19.627,19.627c-6.827,8.533-12.8,16.213-13.653,16.213c0,0-0.853,0-0.853,0.853
		c-0.853,0.853-3.413,1.707-5.12,2.56l0,0l0,0c-11.093,5.12-24.747,5.973-48.64-5.12c-18.773-9.387-40.96-25.6-59.733-42.667
		c-16.213-14.507-33.28-28.16-42.667-42.667c-11.947-18.773-17.067-37.547-17.067-51.2c0-5.973-3.413-29.867-0.853-34.133l0,0
		l0.853-0.853c0,0,0,0,0.853-0.853c0.853-0.853,1.707-1.707,2.56-1.707c3.413-2.56,7.68-6.827,11.947-10.24
		c19.627-15.36,23.893-20.48,26.453-29.013c2.56-8.533,0-19.627-8.533-34.987c-14.507-27.307-57.173-81.067-73.387-91.307
		c-2.56-1.707-6.827-3.413-9.387-5.12c-5.973-1.707-15.36-2.56-20.48-1.707c-7.68,1.707,3.413-3.413-17.067,11.947
		c-12.8,9.387-29.867,25.6-34.133,32.427c-9.387,16.213-8.533,29.013,2.56,60.587c10.24,28.16,23.893,56.32,39.253,83.627l0,0
		l0.853,0.853c3.413,5.12,6.827,11.093,10.24,16.213c0,0.853,0.853,0.853,0.853,1.707c3.413,5.12,6.827,11.093,10.24,16.213
		c1.707,1.707,2.56,4.267,4.267,5.973c2.56,4.267,5.12,7.68,8.533,11.947c4.267,5.973,8.533,11.947,13.653,17.92
		c48.64,63.147,104.96,114.347,171.52,156.16c0.853,0.853,1.707,0.853,2.56,1.707c10.24,5.973,20.48,11.947,30.72,17.92
		c1.707,0.853,2.56,1.707,4.267,2.56c10.24,5.973,21.333,11.093,32.427,16.213c0.853,0.853,2.56,0.853,3.413,1.707
		c11.093,5.12,23.04,10.24,34.987,15.36c14.507,5.973,19.627,6.827,30.72,5.973c5.12,0,10.24-0.853,14.507-2.56
		c6.827-1.707,12.8-5.12,20.48-10.24c1.707-0.853,2.56-1.707,4.267-2.56c1.707-0.853,3.413-2.56,5.12-4.267
		c9.387-7.68,7.68-0.853,16.213-11.947c5.973-7.68,10.24-15.36,12.8-21.333C506.681,425.667,507.535,419.693,507.535,413.72"/>
	<path style="fill:#FFFFFF;" d="M469.988,470.893c-1.707,0.853-2.56,1.707-4.267,2.56c-7.68,5.12-13.653,8.533-20.48,10.24
		c-4.267,1.707-9.387,2.56-14.507,2.56c-11.093,0.853-16.213,0-30.72-5.973c-11.947-5.12-23.04-10.24-34.987-15.36
		c-0.853-0.853-2.56-0.853-3.413-1.707c-11.093-5.12-21.333-10.24-32.427-16.213c-1.707-0.853-2.56-1.707-4.267-2.56
		c-10.24-5.973-20.48-11.947-30.72-17.92c-0.853-0.853-1.707-0.853-2.56-1.707c-66.56-40.96-122.88-93.013-171.52-156.16
		c-4.267-5.973-9.387-11.947-13.653-17.92c-2.56-4.267-5.12-7.68-8.533-11.947c-1.707-1.707-2.56-3.413-4.267-5.973
		c-3.413-5.12-6.827-11.093-10.24-16.213c0-0.853-0.853-0.853-0.853-1.707c-3.413-5.12-6.827-11.093-10.24-16.213l-0.853-0.853l0,0
		C56.121,170.52,42.468,142.36,32.228,114.2c-10.24-29.013-10.24-42.667-0.853-58.027c0.853-1.707,2.56-3.413,4.267-5.973
		c-9.387,8.533-18.773,17.92-21.333,22.187C4.921,88.6,5.775,101.4,16.868,132.973c10.24,28.16,23.893,56.32,39.253,83.627l0,0
		c0,0.853,0.853,0.853,0.853,0.853c3.413,5.12,6.827,11.093,10.24,16.213c0,0.853,0.853,0.853,0.853,1.707
		c3.413,5.12,6.827,11.093,10.24,16.213c1.707,1.707,2.56,3.413,4.267,5.973c2.56,4.267,5.12,7.68,8.533,11.947
		c4.267,5.973,8.533,11.947,13.653,17.92c48.64,63.147,104.96,114.347,171.52,156.16c0.853,0.853,1.707,0.853,2.56,1.707
		c10.24,5.973,20.48,11.947,30.72,17.92c1.707,0.853,2.56,1.707,4.267,2.56c10.24,5.973,21.333,11.093,32.427,16.213
		c0.853,0.853,2.56,0.853,3.413,1.707c11.093,5.12,23.04,10.24,34.987,15.36c14.507,5.973,19.627,6.827,30.72,5.973
		c5.12,0,10.24-0.853,14.507-2.56c6.827-1.707,12.8-5.12,20.48-10.24c1.707-0.853,2.56-1.707,4.267-2.56
		c1.707-0.853,3.413-2.56,5.12-4.267c5.12-4.267,10.24-9.387,15.36-15.36C472.548,469.187,470.841,470.04,469.988,470.893"/>
	<g>
		<path style="fill:#FFE100;" d="M259.215,10.947c4.267-3.413,6.827-3.413,20.48-3.413c6.827,0,17.067,0.853,23.04,1.707
			c28.16,3.413,46.08,7.68,70.827,19.627c24.747,11.947,40.107,23.04,61.44,42.667c19.627,18.773,29.867,33.28,41.813,56.32
			c16.213,31.573,24.747,68.267,26.453,109.227c0.853,13.653,0,17.067-3.413,21.333c-5.973,7.68-19.627,6.827-24.747-2.56
			c-1.707-2.56-1.707-5.12-2.56-16.213c-0.853-17.067-1.707-28.16-4.267-41.813c-9.387-52.053-34.987-93.867-75.947-123.733
			c-34.133-24.747-64-34.133-110.08-37.547c-16.213,0-18.773,0-22.187-3.413C253.241,28.867,253.241,16.92,259.215,10.947"/>
		<path style="fill:#FFE100;" d="M343.695,117.613c-16.213-9.387-40.96-17.067-63.147-18.773c-7.68-0.853-12.8-2.56-15.36-5.973
			c-5.12-4.267-5.12-11.947-1.707-17.067c4.267-6.827,11.093-7.68,30.72-4.267c49.493,6.827,87.893,29.867,113.493,66.56
			c14.507,20.48,23.04,45.227,25.6,70.827c0.853,9.387,0.853,26.453,0,29.867c-0.853,2.56-4.267,6.827-7.68,7.68
			c-3.413,1.707-10.24,1.707-13.653-0.853c-5.973-3.413-8.533-7.68-8.533-21.333c0-20.48-5.12-42.667-15.36-59.733
			C377.828,144.92,362.468,128.707,343.695,117.613"/>
		<path style="fill:#FFE100;" d="M365.028,230.253c-5.12,4.267-13.653,4.267-18.773,0c-4.267-2.56-5.12-5.973-5.973-14.507
			c-0.853-11.093-3.413-18.773-5.973-25.6c-6.827-15.36-19.627-23.04-40.96-25.6c-10.24-0.853-12.8-2.56-16.213-5.973
			c-5.973-6.827-3.413-17.92,4.267-22.187c3.413-1.707,4.267-1.707,11.093-0.853c4.267,0,10.24,0.853,13.653,1.707
			c16.213,3.413,28.16,9.387,39.253,18.773c13.653,12.8,21.333,27.307,23.893,49.493
			C371.001,220.013,370.148,225.987,365.028,230.253"/>
	</g>
	<g>
		<path style="fill:#020202;" d="M487.908,272.067c-0.853,0-1.707,0-2.56,0c-7.68-0.853-14.507-5.12-18.773-11.947
			c-2.56-4.267-2.56-8.533-3.413-20.48c-0.853-16.213-1.707-27.307-4.267-40.107c-8.533-49.493-33.28-89.6-72.533-117.76
			c-31.573-23.04-59.733-33.28-104.96-35.84c-15.36-0.853-20.48-1.707-26.453-5.973c-5.12-4.267-8.533-10.24-8.533-17.067
			s2.56-13.653,7.68-17.92C260.068-1,266.041-1,279.695-1c7.68,0,17.92,0.853,23.04,1.707c28.16,3.413,46.933,7.68,73.387,20.48
			c25.6,11.947,41.813,23.893,63.147,44.373c20.48,19.627,31.573,34.987,43.52,58.027c17.067,32.427,25.6,70.827,27.307,112.64
			c0.853,13.653,0.853,19.627-5.12,26.453C501.561,268.653,494.735,272.067,487.908,272.067z M272.868,16.067
			c-5.973,0-6.827,0.853-7.68,1.707l0,0c-0.853,0.853-1.707,2.56-1.707,4.267s0.853,3.413,1.707,4.267
			c1.707,0.853,2.56,1.707,17.067,2.56c48.64,2.56,80.213,13.653,114.347,38.4c42.667,30.72,69.12,74.24,79.36,128.853
			c2.56,13.653,3.413,25.6,4.267,42.667c0.853,10.24,0.853,11.947,1.707,12.8c0.853,1.707,3.413,2.56,5.12,2.56
			c1.707,0,4.267,0,5.12-1.707c1.707-0.853,1.707-1.707,1.707-14.507c-1.707-40.107-10.24-75.093-25.6-105.813
			c-11.093-21.333-21.333-34.987-40.107-53.76c-20.48-19.627-34.987-29.867-58.88-41.813c-24.747-11.947-41.813-15.36-68.267-18.773
			c-5.12-0.853-15.36-1.707-22.187-1.707C276.281,16.067,274.575,16.067,272.868,16.067z"/>
		<path style="fill:#020202;" d="M419.641,255c-4.267,0-8.533-0.853-11.947-2.56c-11.947-5.973-12.8-17.067-12.8-29.013
			c0-19.627-5.12-39.253-13.653-55.467c-10.24-17.92-24.747-33.28-42.667-43.52l0,0c-15.36-8.533-38.4-15.36-58.88-17.067
			c-7.68-0.853-15.36-1.707-21.333-8.533c-6.827-7.68-7.68-19.627-1.707-28.16c7.68-11.947,20.48-11.093,38.4-8.533
			c52.053,7.68,92.16,30.72,119.467,69.973c14.507,21.333,23.893,46.933,27.307,74.24c0.853,5.973,1.707,28.16-0.853,34.133
			c-1.707,4.267-6.827,10.24-11.093,11.947C427.321,254.147,423.055,255,419.641,255z M347.961,109.933
			c20.48,11.947,37.547,29.013,48.64,49.493c10.24,17.92,16.213,41.813,16.213,64c0,11.947,1.707,12.8,3.413,13.653
			c0.853,0.853,5.12,0.853,5.973,0.853c0.853-0.853,2.56-2.56,3.413-3.413c0-2.56,0.853-17.067-0.853-25.6
			c-2.56-24.747-11.093-47.787-24.747-66.56c-23.893-34.987-59.733-55.467-107.52-62.293c-19.627-2.56-20.48-0.853-22.187,0.853
			c-1.707,2.56-1.707,5.12,0,7.68c0.853,0.853,2.56,2.56,9.387,2.56C304.441,92.867,330.041,99.693,347.961,109.933L347.961,109.933
			z"/>
		<path style="fill:#020202;" d="M354.788,242.2c-5.12,0-10.24-1.707-14.507-4.267c-6.827-5.12-8.533-11.093-9.387-19.627
			c-0.853-10.24-2.56-17.067-5.973-23.04c-5.973-11.947-16.213-18.773-34.987-20.48c-11.093-1.707-16.213-2.56-22.187-8.533
			c-4.267-5.12-6.827-12.8-5.12-19.627s5.973-12.8,11.947-16.213c5.12-2.56,8.533-2.56,15.36-2.56c4.267,0,11.093,0.853,15.36,1.707
			c17.92,3.413,31.573,10.24,42.667,21.333c15.36,13.653,23.04,30.72,27.307,54.613c2.56,14.507,1.707,24.747-6.827,32.427l0,0
			C365.881,240.493,360.761,242.2,354.788,242.2z M286.521,144.067c-1.707,0-1.707,0-2.56,0.853c-1.707,0.853-2.56,2.56-3.413,4.267
			c0,1.707,0,3.413,0.853,5.12c0.853,1.707,1.707,1.707,11.093,3.413c23.893,2.56,39.253,12.8,47.787,30.72
			c4.267,8.533,5.973,17.067,6.827,28.16c0.853,6.827,1.707,6.827,2.56,7.68c2.56,1.707,6.827,1.707,8.533,0
			c1.707-1.707,3.413-3.413,0.853-17.067c-2.56-19.627-9.387-33.28-21.333-44.373c-9.387-8.533-20.48-13.653-34.987-17.067
			c-2.56-0.853-8.533-0.853-12.8-1.707C289.081,144.067,287.375,144.067,286.521,144.067z"/>
		<path style="fill:#020202;" d="M501.561,387.267c-5.973-6.827-42.667-35.84-58.88-46.933c-12.8-8.533-33.28-20.48-42.667-25.6
			c-13.653-6.827-28.16-7.68-41.813-3.413c-2.56,0.853-5.12,1.707-6.827,2.56c-6.827,3.413-11.947,9.387-22.187,21.333
			c-10.24,12.8-12.8,15.36-12.8,15.36c-0.853,0.853-2.56,1.707-4.267,2.56h-0.853c-7.68,4.267-20.48,0.853-41.813-9.387
			c-17.92-8.533-34.133-19.627-52.053-35.84c-15.36-13.653-30.72-31.573-39.253-45.227c-11.947-19.627-19.627-41.813-19.627-52.053
			c0-4.267,1.707-10.24,3.413-12.8l0.853-0.853c0,0,0.853-0.853,1.707-1.707c3.413-2.56,7.68-5.973,11.947-9.387
			c19.627-15.36,25.6-21.333,29.013-33.28c3.413-11.093,0.853-23.893-8.533-41.813c-13.653-26.453-58.027-82.773-75.947-94.72
			c-2.56-2.56-7.68-5.12-11.093-5.973c-7.68-3.413-17.92-4.267-24.747-2.56c-9.387,1.707-19.627,7.68-41.813,24.747
			c-12.8,8.533-31.573,26.453-36.693,34.987c-11.947,20.48-8.533,37.547,1.707,67.413c10.24,28.16,23.893,56.32,40.107,84.48
			l0.853,1.707c3.413,5.12,6.827,11.093,10.24,16.213l0.853,1.707c3.413,5.12,6.827,11.093,10.24,16.213l5.973,8.533
			c2.56,3.413,4.267,5.973,6.827,9.387c4.267,5.973,9.387,11.947,13.653,17.92c49.493,64,106.667,116.053,174.08,157.867l2.56,1.707
			c9.387,5.973,19.627,11.947,30.72,17.92l4.267,2.56c11.093,5.973,21.333,11.093,32.427,16.213l3.413,1.707
			c12.8,5.973,23.893,11.093,34.987,15.36c13.653,5.12,19.627,6.827,29.013,6.827c1.707,0,3.413,0,5.12,0
			c5.973,0,11.947-0.853,17.067-2.56c7.68-2.56,14.507-5.973,23.04-11.947c0.853-0.853,2.56-2.56,4.267-3.413
			c1.707-1.707,4.267-3.413,5.973-5.12c9.387-7.68,20.48-19.627,29.013-31.573c4.267-5.973,10.24-15.36,13.653-23.04
			c3.413-6.827,4.267-14.507,4.267-21.333C510.948,402.627,507.535,394.093,501.561,387.267z M491.321,427.373
			c-1.707,5.12-5.973,11.947-11.947,19.627c-7.68,11.093-17.92,21.333-26.453,29.013c-1.707,1.707-3.413,3.413-5.12,4.267
			c-1.707,0.853-2.56,1.707-4.267,2.56c-6.827,5.12-12.8,7.68-17.92,9.387c-4.267,0.853-8.533,1.707-12.8,1.707
			c-9.387,0-12.8,0-26.453-5.12c-10.24-5.12-21.333-9.387-34.133-15.36l-3.413-1.707c-10.24-5.12-21.333-10.24-31.573-16.213
			l-4.267-2.56c-10.24-5.12-20.48-11.093-29.867-17.067l-2.56-1.707c-66.56-40.96-122.027-91.307-169.813-153.6
			c-4.267-5.973-8.533-11.947-12.8-17.92c-2.56-3.413-5.12-5.973-6.827-9.387l-5.12-7.68c-4.267-5.12-7.68-10.24-11.093-16.213
			l-0.853-0.853c-3.413-5.12-5.973-11.093-9.387-16.213l-0.853-1.707c-16.213-26.453-29.013-54.613-39.253-81.92
			c-11.947-30.72-10.24-40.96-3.413-52.907c3.413-5.12,19.627-21.333,32.427-29.867C72.335,31.427,82.575,25.453,88.548,24.6
			c3.413-0.853,11.093,0,15.36,1.707c1.707,0.853,5.12,2.56,7.68,4.267c12.8,8.533,55.467,60.587,69.973,87.893
			c6.827,12.8,9.387,23.04,7.68,29.013c-1.707,5.973-3.413,9.387-23.04,24.747c-5.12,3.413-9.387,7.68-12.8,10.24
			c-0.853,0.853-1.707,1.707-2.56,2.56l-0.853,0.853c-0.853,0.853-1.707,0.853-1.707,1.707l-0.853,0.853
			c-4.267,5.12-6.827,15.36-6.827,23.04c0.853,15.36,9.387,40.107,22.187,60.587c9.387,14.507,26.453,34.133,42.667,48.64
			c18.773,17.067,35.84,29.013,55.467,38.4c25.6,11.947,41.813,15.36,55.467,10.24h0.853l1.707-0.853
			c1.707-0.853,4.267-1.707,5.12-2.56c0.853-0.853,1.707-0.853,2.56-1.707c0.853-0.853,1.707-1.707,15.36-17.92
			c10.24-11.947,13.653-15.36,17.067-17.067c0.853-0.853,2.56-0.853,4.267-1.707c9.387-3.413,18.773-2.56,29.013,2.56
			c8.533,5.12,28.16,16.213,40.107,24.747c17.92,11.947,52.053,39.253,55.467,43.52c4.267,4.267,5.973,8.533,5.973,14.507
			C493.881,417.133,493.028,422.253,491.321,427.373z"/>
	</g>
</g>
<g>
</g>
<g>
</g>
<g>
</g>
<g>
</g>
<g>
</g>
<g>
</g>
<g>
</g>
<g>
</g>
<g>
</g>
<g>
</g>
<g>
</g>
<g>
</g>
<g>
</g>
<g>
</g>
<g>
</g>
</svg>
