<?xml version="1.0" encoding="iso-8859-1"?>
<!-- Generator: Adobe Illustrator 19.0.0, SVG Export Plug-In . SVG Version: 6.00 Build 0)  -->
<svg version="1.1" id="Layer_1" xmlns="http://www.w3.org/2000/svg" xmlns:xlink="http://www.w3.org/1999/xlink" x="0px" y="0px"
	 viewBox="0 0 503.607 503.607" style="enable-background:new 0 0 503.607 503.607;" xml:space="preserve">
<g transform="translate(0 1)">
	<g>
		<path style="fill:#FFE100;" d="M457.443,98.043c0,40.289,0,59.593-5.875,94.007h25.18c5.875-34.413,5.875-53.718,5.875-94.007
			c0-59.593-61.272-93.167-118.348-90.649C411.279,9.911,457.443,42.646,457.443,98.043"/>
		<path style="fill:#FFE100;" d="M457.443,267.59v59.593c15.108,2.518,25.18,2.518,25.18,2.518V267.59H457.443z"/>
		<path style="fill:#FFE100;" d="M415.475,315.433c-5.036,9.233-15.108,17.626-20.984,27.698
			c-63.79,97.364-90.649,150.243-113.311,151.082c22.662-0.839,74.702-53.718,138.492-151.082
			c5.036-8.393,10.072-15.948,14.269-23.502C428.905,317.951,423.03,317.111,415.475,315.433"/>
		<path style="fill:#FFE100;" d="M314.754,108.115c0-36.092,71.344-54.557,71.344,5.036c0,33.574-5.036,50.361-12.59,78.898h52.879
			c5.875-34.413,5.875-53.718,5.875-94.007c0-113.311-193.049-131.777-193.049,11.751c0,100.721,58.754,153.6,109.115,181.298
			c-41.967,80.577-109.115,127.58-109.115,127.58C79.738,291.931,96.525,74.541,96.525,74.541H54.557
			c1.679,290.413,135.134,391.134,154.439,406.243c18.466,15.108,21.823,13.43,47.003,13.43
			c22.662-0.839,49.521-53.718,113.311-151.082c5.875-9.233,15.948-18.466,20.984-27.698c26.859,5.875,41.967,5.875,41.967,5.875
			v-61.272C319.79,249.125,314.754,133.295,314.754,108.115"/>
	</g>
	<path style="fill:#FFFFFF;" d="M54.557,74.541h-25.18c1.679,290.413,160.315,391.134,179.62,406.243
		C189.692,465.675,56.236,364.954,54.557,74.541"/>
	<g>
		<path style="fill:#FFA800;" d="M432.262,98.043c0,40.289,0,59.593-5.875,94.007h25.18c5.875-34.413,5.875-53.718,5.875-94.007
			c0-59.593-61.272-93.167-118.348-90.649C386.098,9.911,432.262,42.646,432.262,98.043"/>
		<path style="fill:#FFA800;" d="M314.754,108.115c0-20.144,21.823-34.413,41.967-33.574
			C337.416,72.862,314.754,87.971,314.754,108.115c0,25.18,5.036,141.01,117.508,151.921v59.593
			c15.108,2.518,25.18,2.518,25.18,2.518v-61.272C322.308,247.446,314.754,135.813,314.754,108.115"/>
		<path style="fill:#FFA800;" d="M390.295,315.433c-5.036,9.233-15.108,17.626-20.984,27.698
			C305.521,440.495,278.662,493.374,256,494.213c22.662-0.839,74.702-53.718,138.492-151.082
			c5.036-8.393,10.072-15.948,14.269-23.502C403.725,317.951,397.849,317.111,390.295,315.433"/>
	</g>
	<path d="M244.249,502.607c-17.626,0-23.502-1.679-41.128-15.108c-0.839-0.839-2.518-1.679-4.197-2.518
		C90.649,404.403,48.682,286.895,32.734,202.121c-0.839-4.197,2.518-9.233,6.715-10.072c4.197-0.839,9.233,2.518,10.072,6.715
		c15.948,81.416,56.236,195.567,160.315,271.948c1.679,1.679,3.357,2.518,4.197,3.357c15.108,11.751,16.787,11.751,34.413,11.751
		H256c16.787-0.839,66.308-47.843,131.777-147.725c5.875-9.233,11.751-18.466,16.787-26.859c1.679-3.357,5.875-5.036,9.233-4.197
		c15.108,3.357,27.698,5.036,36.092,5.036V267.59c-132.616-16.787-143.528-125.902-143.528-159.475
		c0-24.341,26.02-41.967,48.682-41.967c10.911,0,21.823,4.197,28.538,11.751c8.393,8.393,12.59,20.144,12.59,35.252
		c0,30.216-4.197,47.843-10.072,70.505h57.915c4.197-28.538,4.197-47.003,4.197-81.416v-5.036
		c0.839-52.879-52.039-81.416-102.4-81.416c-26.859,0-50.361,8.393-67.987,22.662c-20.144,16.787-30.216,41.128-30.216,70.505
		c0,78.898,33.574,137.652,99.882,173.744c4.197,2.518,5.875,7.554,3.357,10.911c-42.807,81.416-104.079,129.259-106.597,130.938
		c-3.357,2.518-7.554,2.518-10.072,0C91.489,312.075,87.292,125.741,88.131,82.934H37.77c0,20.144,1.679,39.449,3.357,57.915
		c0.839,4.197-3.357,8.393-7.554,9.233c-5.036,0.839-8.393-3.357-9.233-7.554c-2.518-21.823-3.357-44.485-3.357-67.987
		c0-2.518,0.839-4.197,2.518-5.875c1.679-1.679,3.357-2.518,5.875-2.518h67.148c2.518,0,4.197,0.839,5.875,2.518
		c1.679,1.679,2.518,4.197,2.518,6.715s-13.43,209.836,134.295,332.38c15.108-12.59,59.593-52.879,93.167-114.151
		c-47.843-28.538-101.561-83.095-101.561-184.656c0-35.252,12.59-63.79,36.092-83.934C287.056,8.233,315.593-1,345.81-1
		c57.915,0,120.026,34.413,120.026,99.043v5.036c0,36.931,0,57.075-5.875,90.649c-0.839,4.197-4.197,6.715-8.393,6.715h-76.38
		c-2.518,0-5.036-0.839-6.715-3.357c-1.679-1.679-2.518-5.036-1.679-7.554l0.839-2.518c6.715-26.859,10.911-42.807,10.911-74.702
		c0-10.911-2.518-18.466-7.554-23.502c-5.036-5.036-11.751-6.715-16.787-6.715c-14.269,0.839-31.056,11.751-31.056,26.02
		c0,31.056,10.072,131.777,135.134,143.528c4.197,0,7.554,4.197,7.554,8.393v61.272c0,2.518-0.839,4.197-2.518,5.875
		c-1.679,1.679-3.357,2.518-5.875,2.518l0,0c-0.839,0-17.626,0-41.967-5.036c-4.197,7.554-9.233,14.269-14.269,22.662
		c-62.111,95.685-116.669,153.6-144.367,155.279h-7.554C247.607,502.607,245.928,502.607,244.249,502.607z"/>
	<path d="M43.646,171.066c0-5.036-3.357-8.393-8.393-8.393s-8.393,3.357-8.393,8.393c0,5.036,3.357,8.393,8.393,8.393
		S43.646,176.102,43.646,171.066"/>
</g>
<g>
</g>
<g>
</g>
<g>
</g>
<g>
</g>
<g>
</g>
<g>
</g>
<g>
</g>
<g>
</g>
<g>
</g>
<g>
</g>
<g>
</g>
<g>
</g>
<g>
</g>
<g>
</g>
<g>
</g>
</svg>
