<?xml version="1.0" encoding="iso-8859-1"?>
<!-- Generator: Adobe Illustrator 19.0.0, SVG Export Plug-In . SVG Version: 6.00 Build 0)  -->
<svg version="1.1" id="Layer_1" xmlns="http://www.w3.org/2000/svg" xmlns:xlink="http://www.w3.org/1999/xlink" x="0px" y="0px"
	 viewBox="0 0 512 512" style="enable-background:new 0 0 512 512;" xml:space="preserve">
<g transform="translate(1 1)">
	<path style="fill:#FFE100;" d="M477.171,83.114c-9.143-23.771,1.829-33.829-48.457-33.829c-23.771,0-36.571,18.286-36.571,45.714
		c0,20.114,16.457,40.229,27.429,64c10.057,20.114,18.286,33.829,18.286,64c0,11.886-4.571,24.686-9.143,40.229l0,0L383,378.429
		L291.571,120.6c-25.6,2.743-51.2,2.743-75.886,0L255,223l-54.857,162.743L108.714,120.6c-24.686,2.743-25.6,2.743-45.714-1.829
		l113.371,311.771c0.914,14.629,8.229,26.514,23.771,30.171c22.857,5.486,23.771-8.229,32-31.086l59.429-179.2l64,179.2
		c7.314,17.371,22.857,27.429,40.229,18.286c9.143-3.657,16.457-10.971,20.114-21.029l49.371-202.971
		c13.714-34.743,18.286-67.657,18.286-92.343v-14.629C483.571,105.057,481.743,94.086,477.171,83.114"/>
	<path style="fill:#FFFFFF;" d="M179.114,434.2L66.657,126.086c-10.971-0.914-21.943-1.829-32.914-3.657L147.114,434.2
		c5.486,14.629,17.371,25.6,32,29.257c7.314,1.829,13.714,1.829,20.114,0C186.429,459.8,180.029,447.914,179.114,434.2"/>
	<path style="fill:#FFA800;" d="M495.457,83.114C486.314,59.343,479,49.286,428.714,49.286H427.8
		c41.143,0.914,32,10.971,41.143,33.829c3.657,10.971,5.486,21.943,5.486,33.829v14.629c0,24.686-4.571,57.6-18.286,92.343
		l-40.229,202.971l67.657-202.971c13.714-34.743,18.286-67.657,18.286-92.343v-14.629
		C501.857,105.057,500.029,94.086,495.457,83.114"/>
	<path style="fill:#FFE100;" d="M108.714,117.857L108.714,117.857c-30.171,6.4-24.686,6.4-54.857,0l0,0
		c-10.057,0-18.286-8.229-18.286-18.286l0,0c0-10.057,8.229-18.286,18.286-18.286l0,0c30.171,6.4,24.686,6.4,54.857,0l0,0
		c10.057,0,18.286,8.229,18.286,18.286l0,0C127,109.629,118.771,117.857,108.714,117.857"/>
	<path style="fill:#FFFFFF;" d="M53.857,117.857c-10.057,0-18.286-8.229-18.286-18.286c0-6.4,3.657-11.886,9.143-15.543
		c-6.4-0.914-12.8-1.829-18.286-2.743c-10.057,0-18.286,8.229-18.286,18.286s8.229,18.286,18.286,18.286
		c17.371,3.657,34.743,4.571,52.114,4.571C73.057,121.514,66.657,120.6,53.857,117.857"/>
	<path style="fill:#FFE100;" d="M309.857,117.857L309.857,117.857c-36.571,6.4-73.143,6.4-109.714,0
		c-10.057,0-18.286-8.229-18.286-18.286l0,0c0-10.057,8.229-18.286,18.286-18.286c36.571,6.4,73.143,6.4,109.714,0
		c10.057,0,18.286,8.229,18.286,18.286l0,0C328.143,109.629,319.914,117.857,309.857,117.857"/>
	<path d="M72.143,131.571c-15.543,0-31.086-1.829-46.629-4.571C10.886,126.086-1,114.2-1,99.571
		c0-15.543,11.886-27.429,27.429-27.429c0.914,0,0.914,0,1.829,0c29.257,5.486,58.514,5.486,87.771,0c0.914,0,0.914,0,1.829,0
		c15.543,0,27.429,11.886,27.429,27.429c0,14.629-11.886,26.514-26.514,27.429C103.229,129.743,87.686,131.571,72.143,131.571z
		 M25.514,90.429c-4.571,0-8.229,4.571-8.229,9.143c0,5.486,3.657,9.143,9.143,9.143c0.914,0,0.914,0,1.829,0
		c29.257,5.486,58.514,5.486,87.771,0c0.914,0,0.914,0,1.829,0c5.486,0,9.143-3.657,9.143-9.143c0-4.571-3.657-9.143-8.229-9.143
		C87.686,96.829,56.6,96.829,25.514,90.429z"/>
	<path d="M255,131.571c-18.286,0-37.486-1.829-55.771-4.571c-14.629,0-26.514-12.8-26.514-27.429
		c0-15.543,11.886-27.429,27.429-27.429c0.914,0,0.914,0,1.829,0c35.657,5.486,71.314,5.486,106.971,0c0.914,0,0.914,0,1.829,0
		c15.543,0,27.429,11.886,27.429,27.429C338.2,114.2,326.314,127,311.686,127C292.486,129.743,273.286,131.571,255,131.571z
		 M199.229,90.429c-4.571,0-8.229,4.571-8.229,9.143c0,5.486,3.657,9.143,9.143,9.143c0.914,0,0.914,0,1.829,0
		c35.657,5.486,71.314,5.486,106.971,0c0.914,0,0.914,0,1.829,0c5.486,0,9.143-3.657,9.143-9.143c0-4.571-3.657-9.143-8.229-9.143
		C273.286,96.829,236.714,96.829,199.229,90.429z"/>
	<path d="M188.257,470.771c-4.571,0-8.229-0.914-12.8-1.829c-18.286-4.571-32-17.371-38.4-34.743L22.771,121.514
		c-0.914-2.743,0-6.4,1.829-8.229c1.829-2.743,5.486-3.657,9.143-3.657c23.771,4.571,47.543,4.571,70.4,0.914
		c4.571,0,8.229,2.743,10.057,6.4L200.143,357.4L245.857,223l-39.314-99.657c-0.914-2.743-0.914-6.4,0.914-9.143
		c1.829-2.743,5.486-3.657,8.229-3.657c24.686,2.743,49.371,2.743,74.057,0c4.571,0,8.229,1.829,10.057,6.4l82.286,233.143
		l30.171-90.514v-0.914c4.571-15.543,6.4-26.514,6.4-36.571c0-24.686-5.486-36.571-13.714-53.029l-3.657-7.314
		c-2.743-6.4-7.314-12.8-10.057-19.2c-9.143-16.457-18.286-32-18.286-48.457c0-31.086,23.771-54.857,54.857-54.857
		c51.2,0,64,10.057,75.886,40.229l0,0c5.486,11.886,7.314,24.686,7.314,37.486v14.629c0,21.943-3.657,56.686-19.2,96
		l-67.657,202.971c-3.657,11.886-12.8,21.943-24.686,26.514c-9.143,4.571-19.2,5.486-28.343,1.829
		c-10.057-3.657-19.2-12.8-23.771-25.6l-54.857-155.429l-52.114,155.429C233.057,455.229,211.114,470.771,188.257,470.771z
		 M45.629,129.743l108.8,298.057c4.571,11.886,13.714,20.114,25.6,22.857c18.286,4.571,37.486-6.4,42.971-23.771l59.429-179.2
		c0.914-3.657,4.571-6.4,8.229-6.4l0,0c3.657,0,7.314,2.743,8.229,6.4l64,179.2c2.743,7.314,8.229,12.8,13.714,14.629
		c4.571,1.829,9.143,0.914,13.714-0.914c7.314-2.743,12.8-8.229,15.543-15.543l68.571-202.971
		c14.629-36.571,17.371-69.486,17.371-89.6v-15.543c0-10.971-1.829-21.029-5.486-30.171l0,0c-6.4-19.2-10.057-28.343-57.6-28.343
		c-17.371,0-36.571,12.8-36.571,36.571c0,11.886,7.314,25.6,15.543,39.314c3.657,6.4,7.314,13.714,10.971,20.114l3.657,7.314
		c8.229,17.371,15.543,32,15.543,61.257c0,10.971-1.829,24.686-7.314,42.057c0,0.914,0,0.914-0.914,1.829l-38.4,114.286
		c-0.914,3.657-4.571,6.4-8.229,6.4l0,0c-3.657,0-7.314-2.743-8.229-6.4l-89.6-251.429c-18.286,1.829-37.486,1.829-55.771,0
		l34.743,89.6c0.914,1.829,0.914,4.571,0,6.4l-54.857,162.743c-0.914,3.657-4.571,6.4-8.229,6.4l0,0c-3.657,0-7.314-2.743-8.229-6.4
		L99.571,129.743C81.286,131.571,63,131.571,45.629,129.743z"/>
</g>
<g>
</g>
<g>
</g>
<g>
</g>
<g>
</g>
<g>
</g>
<g>
</g>
<g>
</g>
<g>
</g>
<g>
</g>
<g>
</g>
<g>
</g>
<g>
</g>
<g>
</g>
<g>
</g>
<g>
</g>
</svg>
