<?xml version="1.0" encoding="iso-8859-1"?>
<!-- Generator: Adobe Illustrator 19.0.0, SVG Export Plug-In . SVG Version: 6.00 Build 0)  -->
<svg version="1.1" id="Layer_1" xmlns="http://www.w3.org/2000/svg" xmlns:xlink="http://www.w3.org/1999/xlink" x="0px" y="0px"
	 viewBox="0 0 506.964 506.964" style="enable-background:new 0 0 506.964 506.964;" xml:space="preserve">
<g transform="translate(1)">
	<g>
		<path style="fill:#FFE100;" d="M477.426,76.38l-14.269,34.413l-39.449,20.144c-8.393,3.357-31.056,29.377-69.666,79.738
			c-41.128,52.039-62.951,85.613-66.308,102.4l-2.518,46.164l-0.839,28.538l5.036,70.505l73.023,1.679l-10.072,36.931h25.18
			l9.233-36.931l-73.023-1.679l-4.197-70.505l0.839-27.698l2.518-46.164c3.357-16.787,25.18-50.361,66.308-102.4
			c38.61-50.361,61.272-76.38,69.666-79.738l39.449-20.144l14.269-35.252H477.426z"/>
		<path style="fill:#FFE100;" d="M454.764,111.633l-55.397,18.466c-8.393,3.357-31.056,29.377-69.666,79.738
			c-41.128,52.039-62.951,85.613-66.308,102.4l-2.518,46.164l-0.839,29.377l5.036,70.505l73.023,1.679l-10.072,36.931H160.154
			l4.197-32.734l34.413-1.679c17.626-1.679,28.538-5.875,31.895-10.911c2.518-3.357,3.357-26.02,3.357-65.469v-24.341l-0.839-48.682
			c-2.518-10.911-20.984-52.039-57.915-122.544c-37.77-73.023-62.951-114.99-74.702-130.098L32.574,45.325V10.072h206.479
			l-2.518,29.377l-69.666,10.911c22.662,52.039,54.557,124.223,100.721,215.711c60.433-72.184,91.489-119.187,92.328-139.331
			l-61.272-15.108l-3.357-34.413h173.744L454.764,111.633z"/>
	</g>
	<path style="fill:#FFFFFF;" d="M199.603,461.639c17.626-1.679,28.538-5.875,31.895-10.911c2.518-3.357,3.357-26.02,3.357-65.469
		v-24.341l-0.839-48.682c-2.518-10.911-20.984-52.039-57.915-122.544c-37.77-73.023-62.951-114.99-74.702-130.098L32.574,45.325
		V10.072H7.393v35.252L76.22,60.433c11.751,15.108,36.931,57.915,74.702,130.098c36.931,70.505,55.397,111.633,57.915,122.544
		l0.839,48.682v24.341c0,39.449-0.839,61.272-3.357,65.469c-3.357,5.875-14.269,9.233-31.895,10.911l-34.413,1.679l-4.197,32.734
		h25.18l4.197-32.734L199.603,461.639z"/>
	<path style="fill:#FFA800;" d="M468.193,77.22l-14.269,34.413l-55.397,18.466c-8.393,3.357-31.056,29.377-69.666,79.738
		c-41.128,52.039-62.951,85.613-66.308,102.4l-2.518,46.164l-0.839,29.377l5.036,70.505l73.023,1.679l-10.072,36.931h25.18
		l9.233-36.931l-73.023-1.679l-4.197-70.505l0.839-27.698l2.518-46.164c3.357-16.787,25.18-50.361,66.308-102.4
		c38.61-50.361,61.272-76.38,69.666-79.738l55.397-18.466l14.269-36.092H468.193z"/>
	<path d="M359.918,505.285H125.741l6.715-49.521l41.128-2.518c21.823-2.518,25.18-6.715,25.18-7.554
		c0-0.839,2.518-10.072,2.518-60.433v-24.341l-0.839-47.003c-1.679-5.875-10.072-28.538-57.075-120.026
		c-44.485-84.774-63.79-114.99-72.184-126.741L-1,52.039V1.679h58.754c5.036,0,8.393,3.357,8.393,8.393s-3.357,8.393-8.393,8.393
		H15.787V38.61l64.63,13.43l2.518,2.518c12.59,15.948,38.61,62.111,75.541,131.777c20.144,39.449,55.397,107.436,58.754,125.062
		v1.679l0.839,48.682v24.341c0,62.112-2.518,66.308-5.036,69.666c-5.036,8.393-17.626,12.59-37.77,15.108l-27.698,0.839
		l-2.518,16.787h202.282l5.036-20.144l-70.505-1.679l-5.036-78.898l3.357-76.38c4.197-18.466,26.02-53.718,67.987-105.757
		c49.521-63.79,64.63-78.898,73.023-82.256l52.879-17.626l7.554-19.305H305.361l1.679,20.144l62.111,15.108v6.715
		c-0.839,15.108-12.59,44.485-95.685,144.367l-8.393,10.072l-5.036-12.59c-43.646-86.452-78.898-161.154-103.239-216.551
		L152.6,43.646l76.38-11.751l0.839-13.43H124.902c-5.036,0-8.393-3.357-8.393-8.393s3.357-8.393,8.393-8.393h123.384l-4.197,45.325
		l-67.987,10.911c22.662,51.2,54.557,117.508,92.328,193.889c47.843-58.754,75.541-98.203,82.256-118.348l-59.593-14.269
		l-4.197-50.361h219.069l-20.144,50.361l-58.754,19.305c-2.518,1.679-16.787,13.43-65.469,77.22
		c-48.682,61.272-62.111,87.292-64.63,98.203l-3.357,73.862l4.197,62.951l76.38,1.679L359.918,505.285z"/>
	<path d="M99.721,10.072c0-5.036-3.357-8.393-8.393-8.393c-5.036,0-8.393,3.357-8.393,8.393s3.357,8.393,8.393,8.393
		C96.364,18.466,99.721,15.108,99.721,10.072"/>
</g>
<g>
</g>
<g>
</g>
<g>
</g>
<g>
</g>
<g>
</g>
<g>
</g>
<g>
</g>
<g>
</g>
<g>
</g>
<g>
</g>
<g>
</g>
<g>
</g>
<g>
</g>
<g>
</g>
<g>
</g>
</svg>
