<?xml version="1.0" encoding="iso-8859-1"?>
<!-- Generator: Adobe Illustrator 19.0.0, SVG Export Plug-In . SVG Version: 6.00 Build 0)  -->
<svg version="1.1" id="Layer_1" xmlns="http://www.w3.org/2000/svg" xmlns:xlink="http://www.w3.org/1999/xlink" x="0px" y="0px"
	 viewBox="0 0 512.082 512.082" style="enable-background:new 0 0 512.082 512.082;" xml:space="preserve">
<g transform="translate(1 1)">
	<path style="fill:#FFA800;" d="M380.36,461.589c18.773-7.68,59.733-58.88,62.293-79.36c0.853-6.827-0.853-12.8-5.973-17.067
		c-3.413-2.56-5.12-3.413-79.36-27.307l-32.427-11.093c-7.68-3.413-17.067,0-23.04,6.827c-5.973,7.68-6.827,17.92-2.56,25.6
		l12.8,21.333c43.52,70.827,46.933,75.947,50.347,78.507C367.56,463.296,373.533,464.149,380.36,461.589"/>
	<path style="fill:#FFE100;" d="M365.853,461.589c18.773-7.68,47.787-58.88,51.2-79.36c0.853-6.827-0.853-12.8-5.973-17.067
		c-3.413-2.56,12.8-3.413-60.587-27.307l-32.427-11.093c-7.68-3.413-17.067,0-23.04,6.827c-5.973,7.68-6.827,17.92-2.56,25.6
		l12.8,21.333c43.52,70.827,48.64,75.947,52.053,78.507C362.44,463.296,359.027,464.149,365.853,461.589"/>
	<path style="fill:#FFA800;" d="M341.96,278.122c83.627-20.48,87.04-21.333,90.453-23.893c5.12-3.413,7.68-9.387,6.827-16.213
		v-0.853c-2.56-20.48-38.4-74.24-56.32-82.773c-5.973-3.413-12.8-2.56-17.92,0.853c-3.413,1.707-5.973,5.12-50.347,66.56
		c0,0-20.48,27.307-20.48,28.16c-5.12,6.827-5.12,16.213,0,23.893c5.12,8.533,14.507,11.947,23.04,10.24c0,0,0,0.853-0.853,0.853
		C321.48,283.242,328.307,281.536,341.96,278.122"/>
	<path style="fill:#FFE100;" d="M340.253,278.122c83.627-20.48,65.707-21.333,69.12-23.893c5.12-3.413,7.68-9.387,6.827-16.213
		v-0.853c-2.56-20.48-24.747-74.24-42.667-82.773c-5.973-3.413-12.8-2.56-17.92,0.853c-3.413,1.707,1.707,5.12-42.667,66.56
		c0,0-20.48,27.307-20.48,28.16c-5.12,6.827-5.12,16.213,0,23.893c5.12,8.533,14.507,11.947,23.04,10.24c0,0,0,0.853-0.853,0.853
		C319.773,283.242,326.6,281.536,340.253,278.122"/>
	<path style="fill:#FFFFFF;" d="M253.213,491.456c1.707-3.413,1.707-5.973,1.707-83.627c0,0,0-34.133,0-34.987
		c0.853-8.533-5.12-16.213-13.653-19.627c-9.387-3.413-18.773-1.707-24.747,5.12l-16.213,19.627
		c-55.467,65.707-58.027,68.267-58.88,72.533c-0.853,2.56-0.853,5.12-0.853,6.827c0,3.413,1.707,6.827,4.267,10.24
		c12.8,15.36,75.093,38.4,94.72,34.987C245.533,500.842,250.653,497.429,253.213,491.456"/>
	<path style="fill:#FFE100;" d="M253.213,491.456c1.707-3.413,1.707-5.973,1.707-83.627c0,0,0-34.133,0-34.987
		c0.853-8.533-5.12-16.213-13.653-19.627c-9.387-3.413,6.827-1.707,0.853,5.12l-16.213,19.627
		c-55.467,65.707-58.027,68.267-58.88,72.533c-0.853,2.56-0.853,5.12-0.853,6.827c0,3.413,1.707,6.827,4.267,10.24
		c12.8,15.36,49.493,38.4,69.12,34.987C245.533,500.842,250.653,497.429,253.213,491.456"/>
	<path style="fill:#FFFFFF;" d="M77.427,244.842c-7.68,12.8-11.093,52.907-8.533,80.213c0.853,8.533,2.56,16.213,5.12,20.48
		c3.413,5.973,8.533,9.387,14.507,10.24c4.267,0,5.973-0.853,80.213-23.893c0,0,32.427-10.24,33.28-10.24
		c8.533-1.707,13.653-9.387,14.507-19.627c0.853-10.24-4.267-18.773-12.8-21.333l-23.04-9.387
		c-79.36-32.427-82.773-34.133-87.04-34.133C85.96,235.456,80.84,238.869,77.427,244.842"/>
	<path style="fill:#FFE100;" d="M102.173,244.842c-7.68,12.8-11.093,52.907-8.533,80.213c0.853,8.533,2.56,16.213,5.12,20.48
		c3.413,5.973,8.533,9.387,14.507,10.24c4.267,0-17.92-0.853,56.32-23.893c0,0,32.427-10.24,33.28-10.24
		c8.533-1.707,13.653-9.387,14.507-19.627c0.853-10.24-4.267-18.773-12.8-21.333l-23.04-9.387
		c-79.36-32.427-58.88-34.133-63.147-34.133C111.56,235.456,106.44,238.869,102.173,244.842"/>
	<path style="fill:#FFFFFF;" d="M257.48,209.002L257.48,209.002c-0.853-33.28-11.093-180.907-11.947-188.587
		c-1.707-5.973-6.827-10.24-13.653-12.8c-21.333-4.267-103.253,18.773-118.613,34.133c-5.12,5.12-6.827,11.093-5.12,17.067
		c2.56,4.267,104.107,163.84,104.107,163.84c15.36,24.747,27.307,20.48,31.573,19.627
		C247.24,241.429,259.187,237.162,257.48,209.002"/>
	<path style="fill:#FFE100;" d="M254.92,209.002L254.92,209.002c-1.707-33.28-11.093-181.76-12.8-188.587
		c-1.707-5.973-6.827-10.24-13.653-12.8c-21.333-4.267-77.653,18.773-93.013,34.133c-4.267,5.12-5.973,11.093-5.12,17.067
		c2.56,5.12,104.107,164.693,104.107,164.693c15.36,24.747,1.707,20.48,5.973,19.627
		C243.827,241.429,255.773,237.162,254.92,209.002"/>
	<path d="M89.373,363.456c-0.853,0-0.853,0-1.707,0c-9.387,0-17.067-5.973-22.187-14.507c-2.56-5.12-4.267-12.8-5.973-23.893
		c-2.56-24.747-0.853-69.12,10.24-85.333l0,0c5.12-8.533,13.653-12.8,23.04-12.8c5.973,0,5.973,0,89.6,34.987l23.04,9.387
		c11.947,4.267,18.773,16.213,17.92,29.867s-8.533,23.893-20.48,27.307c-1.707,0.853-8.533,2.56-32.427,10.24
		C101.32,360.896,94.493,363.456,89.373,363.456z M84.253,249.109c-5.973,10.24-10.24,47.787-7.68,74.24
		c0.853,11.093,3.413,15.36,4.267,17.92c0.853,1.707,3.413,5.12,7.68,5.12c2.56,0,15.36-3.413,77.653-23.893
		c0,0,31.573-10.24,33.28-10.24c5.12-1.707,7.68-5.973,8.533-11.947c0-5.973-2.56-11.093-7.68-13.653l-23.04-9.387
		c-65.707-27.307-81.067-33.28-83.627-33.28C89.373,243.989,86.813,245.696,84.253,249.109z"/>
	<path d="M235.293,511.082c-26.453,0-83.627-22.187-97.28-38.4c-3.413-4.267-5.973-9.387-6.827-14.507c0-3.413,0-7.68,1.707-11.093
		c1.707-5.12,1.707-5.973,60.587-75.093l0,0c1.707-1.707,16.213-18.773,16.213-18.773c7.68-9.387,21.333-12.8,34.133-7.68
		s19.627,15.36,19.627,28.16c0,1.707,0,34.133,0,34.133c0,81.067,0,81.92-1.707,87.04l0,0c-3.413,8.533-10.24,14.507-20.48,16.213
		C238.707,511.082,237,511.082,235.293,511.082z M206.28,383.082L206.28,383.082c-45.227,53.76-56.32,67.413-57.173,69.973
		c-0.853,0.853-0.853,2.56-0.853,3.413c0,1.707,0.853,3.413,2.56,5.973c11.093,12.8,69.973,34.133,87.04,31.573
		c3.413-0.853,5.973-2.56,7.68-5.12c0.853-2.56,0.853-13.653,0.853-81.067c0-34.987,0-34.987,0-35.84
		c0-4.267-2.56-8.533-8.533-10.24c-5.973-2.56-11.947-0.853-14.507,2.56C213.96,374.549,209.693,380.522,206.28,383.082z
		 M253.213,491.456L253.213,491.456L253.213,491.456z"/>
	<path d="M372.68,471.829c-5.12,0-11.093-1.707-15.36-5.12s-5.12-3.413-52.053-81.067l-12.8-21.333
		c-6.827-10.24-5.973-24.747,2.56-34.987c8.533-10.24,21.333-14.507,32.427-9.387l0,0c1.707,0.853,20.48,6.827,32.427,11.093
		c77.653,25.6,77.653,25.6,81.92,29.013c7.68,5.973,11.093,14.507,9.387,24.747c-3.413,23.04-46.08,77.653-67.413,86.187
		C379.507,470.976,376.093,471.829,372.68,471.829z M318.067,334.442c-3.413,0-6.827,1.707-9.387,5.12
		c-4.267,5.12-4.267,11.093-1.707,15.36l12.8,21.333c35.84,58.88,46.08,75.093,48.64,76.8s5.12,1.707,9.387,0.853l0,0
		c15.36-5.973,54.613-55.467,57.173-72.533c0-2.56,0-6.827-2.56-8.533c-1.707-1.707-14.507-5.973-76.8-26.453
		c-24.747-7.68-30.72-10.24-33.28-11.093l0,0C319.773,334.442,318.92,334.442,318.067,334.442z"/>
	<path d="M317.213,293.482c-0.853,0-0.853,0-1.707,0c-10.24,0.853-21.333-4.267-28.16-14.507
		c-7.68-11.093-6.827-24.747,0.853-34.133c0.853-0.853,20.48-27.307,20.48-27.307c47.787-65.707,47.787-65.707,52.907-69.12
		c7.68-5.12,17.067-5.12,26.453-0.853c20.48,10.24,58.027,65.707,60.587,89.6c0,0.853,0,1.707,0,1.707
		c0.853,9.387-3.413,17.92-11.093,23.04c-5.12,3.413-5.12,3.413-93.013,24.747l0,0c-11.947,2.56-20.48,5.12-23.893,5.973
		C318.92,293.482,318.067,293.482,317.213,293.482z M341.96,278.122L341.96,278.122L341.96,278.122z M375.24,161.216
		c-1.707,0-3.413,0.853-4.267,1.707c-1.707,1.707-12.8,16.213-48.64,64.853c-20.48,28.16-20.48,28.16-21.333,28.16
		c-2.56,3.413-2.56,8.533,0.853,13.653s8.533,7.68,13.653,6.827c0.853,0,1.707,0,2.56,0c4.267-1.707,11.093-3.413,22.187-5.973
		c70.827-17.067,85.333-20.48,87.893-22.187c2.56-1.707,3.413-4.267,3.413-8.533v-0.853c-2.56-18.773-36.693-68.267-51.2-75.947
		C378.653,162.069,376.947,161.216,375.24,161.216z"/>
	<path d="M237,251.669c-11.947,0-22.187-8.533-32.427-24.747C180.68,190.229,103.027,67.349,100.467,62.229
		c0-0.853,0-0.853-0.853-1.707c-2.56-8.533,0.853-17.92,7.68-24.747c17.067-17.92,102.4-41.813,126.293-35.84
		c10.24,2.56,17.067,9.387,19.627,18.773c1.707,9.387,11.947,160.427,12.8,190.293c0.853,23.04-5.973,37.547-20.48,41.813
		C242.973,251.669,239.56,251.669,237,251.669z M115.827,55.402c5.973,10.24,64,101.547,103.253,162.987
		c7.68,12.8,14.507,17.92,21.333,15.36c6.827-1.707,9.387-10.24,8.533-24.747l0,0C248.093,174.869,237.853,34.069,237,22.976
		c-0.853-3.413-3.413-5.12-7.68-5.973c-18.773-4.267-97.28,17.067-110.08,30.72C116.68,50.282,115.827,52.842,115.827,55.402z"/>
</g>
<g>
</g>
<g>
</g>
<g>
</g>
<g>
</g>
<g>
</g>
<g>
</g>
<g>
</g>
<g>
</g>
<g>
</g>
<g>
</g>
<g>
</g>
<g>
</g>
<g>
</g>
<g>
</g>
<g>
</g>
</svg>
